%TF.GenerationSoftware,KiCad,Pcbnew,10.0.3*%
%TF.CreationDate,2026-06-27T14:36:09+05:30*%
%TF.ProjectId,pathfinder,70617468-6669-46e6-9465-722e6b696361,rev?*%
%TF.SameCoordinates,Original*%
%TF.FileFunction,Legend,Bot*%
%TF.FilePolarity,Positive*%
%FSLAX46Y46*%
G04 Gerber Fmt 4.6, Leading zero omitted, Abs format (unit mm)*
G04 Created by KiCad (PCBNEW 10.0.3) date 2026-06-27 14:36:09*
%MOMM*%
%LPD*%
G01*
G04 APERTURE LIST*
%ADD10C,0.000000*%
%ADD11C,0.500000*%
%ADD12C,0.150000*%
%ADD13C,0.100000*%
G04 APERTURE END LIST*
D10*
G36*
X172757886Y-114398664D02*
G01*
X172805506Y-114446283D01*
X172811070Y-114454611D01*
X172817214Y-114462527D01*
X172864833Y-114557765D01*
X172865659Y-114560784D01*
X172866673Y-114561798D01*
X172868627Y-114571625D01*
X172871273Y-114581286D01*
X172870820Y-114582644D01*
X172871431Y-114585716D01*
X172871431Y-114871430D01*
X172870820Y-114874501D01*
X172871273Y-114875860D01*
X172868627Y-114885520D01*
X172866673Y-114895348D01*
X172865659Y-114896361D01*
X172864833Y-114899381D01*
X172817214Y-114994619D01*
X172811070Y-115002534D01*
X172805506Y-115010863D01*
X172757886Y-115058482D01*
X172749558Y-115064045D01*
X172741643Y-115070189D01*
X172646405Y-115117808D01*
X172643385Y-115118634D01*
X172642372Y-115119648D01*
X172632544Y-115121602D01*
X172622884Y-115124248D01*
X172621525Y-115123795D01*
X172618454Y-115124406D01*
X172380359Y-115124406D01*
X172377287Y-115123795D01*
X172375929Y-115124248D01*
X172366268Y-115121602D01*
X172356441Y-115119648D01*
X172355427Y-115118634D01*
X172352408Y-115117808D01*
X172257170Y-115070189D01*
X172249248Y-115064041D01*
X172240927Y-115058481D01*
X172193308Y-115010862D01*
X172187747Y-115002540D01*
X172181600Y-114994619D01*
X172133981Y-114899381D01*
X172133154Y-114896361D01*
X172132141Y-114895348D01*
X172130186Y-114885520D01*
X172127541Y-114875860D01*
X172127993Y-114874501D01*
X172127383Y-114871430D01*
X172127383Y-114866309D01*
X171850087Y-115108942D01*
X171834687Y-115117809D01*
X171832849Y-115119648D01*
X171831494Y-115119648D01*
X171828954Y-115121111D01*
X171807003Y-115119648D01*
X171785013Y-115119648D01*
X171783442Y-115118077D01*
X171781226Y-115117930D01*
X171766746Y-115101381D01*
X171751189Y-115085824D01*
X171750616Y-115082946D01*
X171749726Y-115081929D01*
X171749898Y-115079337D01*
X171746431Y-115061906D01*
X171746431Y-114442859D01*
X171751189Y-114418941D01*
X171785013Y-114385117D01*
X171832849Y-114385117D01*
X171866673Y-114418941D01*
X171871431Y-114442859D01*
X171871431Y-114924170D01*
X172148726Y-114681537D01*
X172164126Y-114672669D01*
X172165965Y-114670831D01*
X172167319Y-114670831D01*
X172169860Y-114669368D01*
X172191810Y-114670831D01*
X172213801Y-114670831D01*
X172215371Y-114672401D01*
X172217588Y-114672549D01*
X172232067Y-114689097D01*
X172247625Y-114704655D01*
X172248197Y-114707532D01*
X172249088Y-114708550D01*
X172248915Y-114711141D01*
X172252383Y-114728573D01*
X172252383Y-114856675D01*
X172288869Y-114929647D01*
X172322142Y-114962920D01*
X172395114Y-114999406D01*
X172603699Y-114999406D01*
X172676669Y-114962920D01*
X172709946Y-114929644D01*
X172746431Y-114856675D01*
X172746431Y-114600471D01*
X172709946Y-114527501D01*
X172669498Y-114487054D01*
X172655950Y-114466777D01*
X172655949Y-114418942D01*
X172689774Y-114385117D01*
X172737609Y-114385116D01*
X172757886Y-114398664D01*
G37*
G36*
X172839558Y-113578854D02*
G01*
X172869112Y-113616468D01*
X172863412Y-113663962D01*
X172847545Y-113682480D01*
X172576759Y-113895239D01*
X172847545Y-114107999D01*
X172863412Y-114126517D01*
X172869112Y-114174011D01*
X172839558Y-114211625D01*
X172792064Y-114217325D01*
X172770317Y-114206289D01*
X172475597Y-113974724D01*
X172180878Y-114206289D01*
X172159131Y-114217325D01*
X172111637Y-114211625D01*
X172082083Y-114174011D01*
X172087783Y-114126517D01*
X172103650Y-114107999D01*
X172374435Y-113895239D01*
X172103650Y-113682480D01*
X172087783Y-113663962D01*
X172082083Y-113616468D01*
X172111637Y-113578854D01*
X172159131Y-113573154D01*
X172180878Y-113584190D01*
X172475597Y-113815754D01*
X172770317Y-113584190D01*
X172792064Y-113573154D01*
X172839558Y-113578854D01*
G37*
G36*
X172335811Y-112809540D02*
G01*
X172337170Y-112809088D01*
X172346830Y-112811733D01*
X172356658Y-112813688D01*
X172357671Y-112814701D01*
X172360691Y-112815528D01*
X172455929Y-112863147D01*
X172465759Y-112870777D01*
X172468928Y-112871833D01*
X172471666Y-112875360D01*
X172475194Y-112878099D01*
X172476249Y-112881267D01*
X172483880Y-112891098D01*
X172531499Y-112986336D01*
X172532325Y-112989355D01*
X172533339Y-112990369D01*
X172535293Y-113000196D01*
X172537939Y-113009857D01*
X172537486Y-113011215D01*
X172538097Y-113014287D01*
X172538097Y-113142389D01*
X172569801Y-113205797D01*
X172633209Y-113237501D01*
X172651319Y-113237501D01*
X172714727Y-113205797D01*
X172746431Y-113142389D01*
X172746431Y-112981423D01*
X172705410Y-112899381D01*
X172698970Y-112875860D01*
X172714096Y-112830480D01*
X172756882Y-112809088D01*
X172802262Y-112824214D01*
X172817214Y-112843479D01*
X172864833Y-112938717D01*
X172865659Y-112941736D01*
X172866673Y-112942750D01*
X172868627Y-112952577D01*
X172871273Y-112962238D01*
X172870820Y-112963596D01*
X172871431Y-112966668D01*
X172871431Y-113157144D01*
X172870820Y-113160215D01*
X172871273Y-113161574D01*
X172868627Y-113171234D01*
X172866673Y-113181062D01*
X172865659Y-113182075D01*
X172864833Y-113185095D01*
X172817214Y-113280333D01*
X172809583Y-113290163D01*
X172808528Y-113293332D01*
X172805000Y-113296070D01*
X172802262Y-113299598D01*
X172799093Y-113300653D01*
X172789263Y-113308284D01*
X172694024Y-113355903D01*
X172691004Y-113356729D01*
X172689991Y-113357743D01*
X172680163Y-113359697D01*
X172670503Y-113362343D01*
X172669144Y-113361890D01*
X172666073Y-113362501D01*
X172618454Y-113362501D01*
X172615382Y-113361890D01*
X172614024Y-113362343D01*
X172604363Y-113359697D01*
X172594536Y-113357743D01*
X172593522Y-113356729D01*
X172590503Y-113355903D01*
X172495265Y-113308284D01*
X172485434Y-113300653D01*
X172482266Y-113299598D01*
X172479527Y-113296070D01*
X172476000Y-113293332D01*
X172474944Y-113290163D01*
X172467314Y-113280333D01*
X172419695Y-113185095D01*
X172418868Y-113182075D01*
X172417855Y-113181062D01*
X172415900Y-113171234D01*
X172413255Y-113161574D01*
X172413707Y-113160215D01*
X172413097Y-113157144D01*
X172413097Y-113029042D01*
X172381393Y-112965634D01*
X172317985Y-112933930D01*
X172299876Y-112933930D01*
X172236468Y-112965634D01*
X172204764Y-113029042D01*
X172204764Y-113142389D01*
X172245785Y-113224431D01*
X172252225Y-113247952D01*
X172237099Y-113293331D01*
X172194313Y-113314724D01*
X172148933Y-113299598D01*
X172133981Y-113280333D01*
X172086362Y-113185095D01*
X172085535Y-113182075D01*
X172084522Y-113181062D01*
X172082567Y-113171234D01*
X172079922Y-113161574D01*
X172080374Y-113160215D01*
X172079764Y-113157144D01*
X172079764Y-113014287D01*
X172080374Y-113011215D01*
X172079922Y-113009857D01*
X172082567Y-113000196D01*
X172084522Y-112990369D01*
X172085535Y-112989355D01*
X172086362Y-112986336D01*
X172133981Y-112891098D01*
X172141611Y-112881267D01*
X172142667Y-112878099D01*
X172146194Y-112875360D01*
X172148933Y-112871833D01*
X172152101Y-112870777D01*
X172161932Y-112863147D01*
X172257170Y-112815528D01*
X172260189Y-112814701D01*
X172261203Y-112813688D01*
X172271030Y-112811733D01*
X172280691Y-112809088D01*
X172282049Y-112809540D01*
X172285121Y-112808930D01*
X172332740Y-112808930D01*
X172335811Y-112809540D01*
G37*
G36*
X172299876Y-111951787D02*
G01*
X172666073Y-111951787D01*
X172669144Y-111952397D01*
X172670503Y-111951945D01*
X172680163Y-111954590D01*
X172689991Y-111956545D01*
X172691004Y-111957558D01*
X172694024Y-111958385D01*
X172789262Y-112006004D01*
X172799093Y-112013633D01*
X172802262Y-112014690D01*
X172805000Y-112018218D01*
X172808528Y-112020956D01*
X172809583Y-112024124D01*
X172817214Y-112033955D01*
X172864833Y-112129193D01*
X172865659Y-112132212D01*
X172866673Y-112133226D01*
X172868627Y-112143053D01*
X172871273Y-112152714D01*
X172870820Y-112154072D01*
X172871431Y-112157144D01*
X172871431Y-112347620D01*
X172870820Y-112350691D01*
X172871273Y-112352050D01*
X172868627Y-112361710D01*
X172866673Y-112371538D01*
X172865659Y-112372551D01*
X172864833Y-112375571D01*
X172817214Y-112470809D01*
X172802262Y-112490074D01*
X172756882Y-112505200D01*
X172714096Y-112483807D01*
X172698970Y-112438428D01*
X172705410Y-112414907D01*
X172746431Y-112332865D01*
X172746431Y-112171899D01*
X172714727Y-112108491D01*
X172651318Y-112076787D01*
X172526834Y-112076787D01*
X172441645Y-112502734D01*
X172438101Y-112511264D01*
X172438101Y-112514395D01*
X172435876Y-112516619D01*
X172432289Y-112525254D01*
X172417148Y-112535348D01*
X172404277Y-112548219D01*
X172395104Y-112550043D01*
X172392488Y-112551788D01*
X172389420Y-112551174D01*
X172380359Y-112552977D01*
X172285121Y-112552977D01*
X172282049Y-112552366D01*
X172280691Y-112552819D01*
X172271030Y-112550173D01*
X172261203Y-112548219D01*
X172260189Y-112547205D01*
X172257170Y-112546379D01*
X172161932Y-112498760D01*
X172152101Y-112491129D01*
X172148933Y-112490074D01*
X172146194Y-112486546D01*
X172142667Y-112483808D01*
X172141611Y-112480639D01*
X172133981Y-112470809D01*
X172086362Y-112375571D01*
X172085535Y-112372551D01*
X172084522Y-112371538D01*
X172082567Y-112361710D01*
X172079922Y-112352050D01*
X172080374Y-112350691D01*
X172079764Y-112347620D01*
X172079764Y-112171899D01*
X172204764Y-112171899D01*
X172204764Y-112332865D01*
X172236468Y-112396273D01*
X172299876Y-112427977D01*
X172329121Y-112427977D01*
X172399359Y-112076787D01*
X172299876Y-112076787D01*
X172236468Y-112108491D01*
X172204764Y-112171899D01*
X172079764Y-112171899D01*
X172079764Y-112157144D01*
X172080374Y-112154072D01*
X172079922Y-112152714D01*
X172082567Y-112143053D01*
X172084522Y-112133226D01*
X172085535Y-112132212D01*
X172086362Y-112129193D01*
X172133981Y-112033955D01*
X172141611Y-112024124D01*
X172142667Y-112020956D01*
X172146194Y-112018217D01*
X172148933Y-112014690D01*
X172152101Y-112013634D01*
X172161932Y-112006004D01*
X172257170Y-111958385D01*
X172260189Y-111957558D01*
X172261203Y-111956545D01*
X172271030Y-111954590D01*
X172280691Y-111951945D01*
X172282049Y-111952397D01*
X172285121Y-111951787D01*
X172299876Y-111951787D01*
G37*
G36*
X172832849Y-111194640D02*
G01*
X172866673Y-111228464D01*
X172866673Y-111276300D01*
X172832849Y-111310124D01*
X172808931Y-111314882D01*
X172549104Y-111314882D01*
X172523128Y-111340857D01*
X172846431Y-111583334D01*
X172862711Y-111601491D01*
X172869476Y-111648845D01*
X172840774Y-111687114D01*
X172793420Y-111693879D01*
X172771431Y-111683334D01*
X172433842Y-111430143D01*
X172186459Y-111677528D01*
X172166182Y-111691076D01*
X172118347Y-111691076D01*
X172084522Y-111657251D01*
X172084522Y-111609416D01*
X172098070Y-111589139D01*
X172372327Y-111314882D01*
X171808931Y-111314882D01*
X171785013Y-111310124D01*
X171751189Y-111276300D01*
X171751189Y-111228464D01*
X171785013Y-111194640D01*
X171808931Y-111189882D01*
X172808931Y-111189882D01*
X172832849Y-111194640D01*
G37*
G36*
X173081803Y-110009976D02*
G01*
X173108338Y-110049778D01*
X173098956Y-110096683D01*
X173081695Y-110113909D01*
X171795980Y-110971051D01*
X171773440Y-110980360D01*
X171726535Y-110970979D01*
X171700000Y-110931177D01*
X171709381Y-110884271D01*
X171726643Y-110867045D01*
X173012357Y-110009903D01*
X173034898Y-110000594D01*
X173081803Y-110009976D01*
G37*
G36*
X161895946Y-109922129D02*
G01*
X160575337Y-109922129D01*
X160575337Y-108601520D01*
X161895946Y-108601520D01*
X161895946Y-109922129D01*
G37*
G36*
X160135135Y-107721115D02*
G01*
X162336148Y-107721115D01*
X162776351Y-107721115D01*
X162776351Y-110802534D01*
X162336148Y-110802534D01*
X160135135Y-110802534D01*
X159694932Y-110802534D01*
X159694932Y-110362331D01*
X160135135Y-110362331D01*
X162336148Y-110362331D01*
X162336148Y-108161318D01*
X160135135Y-108161318D01*
X160135135Y-110362331D01*
X159694932Y-110362331D01*
X159694932Y-107721115D01*
X160135135Y-107721115D01*
G37*
G36*
X164096959Y-109041723D02*
G01*
X164977365Y-109041723D01*
X164977365Y-109481926D01*
X164096959Y-109481926D01*
X164096959Y-109922129D01*
X164537162Y-109922129D01*
X164537162Y-110362331D01*
X165417567Y-110362331D01*
X165417567Y-109922129D01*
X165857770Y-109922129D01*
X166297973Y-109922129D01*
X166297973Y-110362331D01*
X166738176Y-110362331D01*
X166738176Y-110802534D01*
X166297973Y-110802534D01*
X165857770Y-110802534D01*
X165857770Y-110362331D01*
X165417567Y-110362331D01*
X165417567Y-110802534D01*
X164537162Y-110802534D01*
X164096959Y-110802534D01*
X164096959Y-110362331D01*
X163656756Y-110362331D01*
X163656756Y-109481926D01*
X163216554Y-109481926D01*
X163216554Y-108601520D01*
X163656756Y-108601520D01*
X163656756Y-108161318D01*
X164096959Y-108161318D01*
X164096959Y-109041723D01*
G37*
G36*
X168498986Y-110802534D02*
G01*
X168058784Y-110802534D01*
X167618581Y-110802534D01*
X167618581Y-110362331D01*
X168058784Y-110362331D01*
X168058784Y-109922129D01*
X168498986Y-109922129D01*
X168498986Y-110802534D01*
G37*
G36*
X169379392Y-110362331D02*
G01*
X170700000Y-110362331D01*
X170700000Y-110802534D01*
X169379392Y-110802534D01*
X168939189Y-110802534D01*
X168939189Y-109922129D01*
X169379392Y-109922129D01*
X169379392Y-110362331D01*
G37*
G36*
X168058784Y-108161318D02*
G01*
X167618581Y-108161318D01*
X167618581Y-107721115D01*
X168058784Y-107721115D01*
X168058784Y-108161318D01*
G37*
G36*
X164977365Y-100237669D02*
G01*
X165417567Y-100237669D01*
X165417567Y-100677871D01*
X165857770Y-100677871D01*
X166297973Y-100677871D01*
X166297973Y-101118074D01*
X165857770Y-101118074D01*
X165857770Y-101998480D01*
X166297973Y-101998480D01*
X166297973Y-101558277D01*
X166738176Y-101558277D01*
X167178378Y-101558277D01*
X167178378Y-102878885D01*
X166738176Y-102878885D01*
X166738176Y-102438682D01*
X166297973Y-102438682D01*
X166297973Y-102878885D01*
X166738176Y-102878885D01*
X166738176Y-103319088D01*
X166297973Y-103319088D01*
X166297973Y-103759290D01*
X166738176Y-103759290D01*
X166738176Y-104639696D01*
X167178378Y-104639696D01*
X167178378Y-105079899D01*
X167618581Y-105079899D01*
X167618581Y-104639696D01*
X168058784Y-104639696D01*
X168058784Y-104199493D01*
X167618581Y-104199493D01*
X167618581Y-103759290D01*
X167178378Y-103759290D01*
X167178378Y-103319088D01*
X167618581Y-103319088D01*
X168058784Y-103319088D01*
X168498986Y-103319088D01*
X168498986Y-103759290D01*
X168939189Y-103759290D01*
X168939189Y-104639696D01*
X168498986Y-104639696D01*
X168498986Y-105520101D01*
X168058784Y-105520101D01*
X168058784Y-105079899D01*
X167618581Y-105079899D01*
X167618581Y-105520101D01*
X167178378Y-105520101D01*
X167178378Y-106400507D01*
X167618581Y-106400507D01*
X167618581Y-106840710D01*
X168058784Y-106840710D01*
X168058784Y-105960304D01*
X168498986Y-105960304D01*
X168498986Y-105520101D01*
X168939189Y-105520101D01*
X168939189Y-106400507D01*
X169379392Y-106400507D01*
X169379392Y-107280912D01*
X169819595Y-107280912D01*
X169819595Y-107721115D01*
X169379392Y-107721115D01*
X169379392Y-108161318D01*
X168939189Y-108161318D01*
X168939189Y-109041723D01*
X168498986Y-109041723D01*
X167178378Y-109041723D01*
X166738176Y-109041723D01*
X166738176Y-108601520D01*
X167178378Y-108601520D01*
X168498986Y-108601520D01*
X168498986Y-107280912D01*
X168058784Y-107280912D01*
X167618581Y-107280912D01*
X167178378Y-107280912D01*
X167178378Y-108601520D01*
X166738176Y-108601520D01*
X166297973Y-108601520D01*
X166297973Y-109041723D01*
X166738176Y-109041723D01*
X166738176Y-109481926D01*
X167178378Y-109481926D01*
X167178378Y-109922129D01*
X166738176Y-109922129D01*
X166297973Y-109922129D01*
X166297973Y-109481926D01*
X165857770Y-109481926D01*
X165857770Y-108601520D01*
X165417567Y-108601520D01*
X165417567Y-108161318D01*
X165857770Y-108161318D01*
X166297973Y-108161318D01*
X166738176Y-108161318D01*
X166738176Y-107280912D01*
X166297973Y-107280912D01*
X166297973Y-106840710D01*
X165857770Y-106840710D01*
X165857770Y-107280912D01*
X165417567Y-107280912D01*
X164977365Y-107280912D01*
X164977365Y-107721115D01*
X165417567Y-107721115D01*
X165417567Y-108161318D01*
X164977365Y-108161318D01*
X164977365Y-108601520D01*
X164537162Y-108601520D01*
X164537162Y-106840710D01*
X164977365Y-106840710D01*
X165417567Y-106840710D01*
X165417567Y-106400507D01*
X165857770Y-106400507D01*
X166297973Y-106400507D01*
X166738176Y-106400507D01*
X166738176Y-105079899D01*
X166297973Y-105079899D01*
X166297973Y-105960304D01*
X165857770Y-105960304D01*
X165417567Y-105960304D01*
X165417567Y-105520101D01*
X165857770Y-105520101D01*
X165857770Y-103759290D01*
X165417567Y-103759290D01*
X165417567Y-102878885D01*
X165857770Y-102878885D01*
X165857770Y-102438682D01*
X165417567Y-102438682D01*
X165417567Y-101118074D01*
X164977365Y-101118074D01*
X164977365Y-101558277D01*
X164537162Y-101558277D01*
X164537162Y-102878885D01*
X164096959Y-102878885D01*
X164096959Y-101118074D01*
X164537162Y-101118074D01*
X164537162Y-99797466D01*
X164977365Y-99797466D01*
X164977365Y-100237669D01*
G37*
G36*
X168939189Y-109922129D02*
G01*
X168498986Y-109922129D01*
X168498986Y-109481926D01*
X168939189Y-109481926D01*
X168939189Y-109922129D01*
G37*
G36*
X169819595Y-109922129D02*
G01*
X169379392Y-109922129D01*
X169379392Y-109041723D01*
X169819595Y-109041723D01*
X169819595Y-109922129D01*
G37*
G36*
X172832849Y-108813688D02*
G01*
X172866673Y-108847512D01*
X172866673Y-108895348D01*
X172832849Y-108929172D01*
X172808931Y-108933930D01*
X172263390Y-108933930D01*
X172241250Y-108956070D01*
X172204764Y-109029042D01*
X172204764Y-109142389D01*
X172236468Y-109205797D01*
X172299876Y-109237501D01*
X172808931Y-109237501D01*
X172832849Y-109242259D01*
X172866673Y-109276083D01*
X172866673Y-109323919D01*
X172832849Y-109357743D01*
X172808931Y-109362501D01*
X172299876Y-109362501D01*
X172236468Y-109394205D01*
X172204764Y-109457613D01*
X172204764Y-109570960D01*
X172236468Y-109634369D01*
X172299876Y-109666073D01*
X172808931Y-109666073D01*
X172832849Y-109670831D01*
X172866673Y-109704655D01*
X172866673Y-109752491D01*
X172832849Y-109786315D01*
X172808931Y-109791073D01*
X172285121Y-109791073D01*
X172282049Y-109790462D01*
X172280691Y-109790915D01*
X172271030Y-109788269D01*
X172261203Y-109786315D01*
X172260189Y-109785301D01*
X172257170Y-109784475D01*
X172161932Y-109736856D01*
X172152101Y-109729225D01*
X172148933Y-109728170D01*
X172146195Y-109724642D01*
X172142667Y-109721904D01*
X172141610Y-109718735D01*
X172133981Y-109708904D01*
X172086362Y-109613666D01*
X172085535Y-109610646D01*
X172084522Y-109609633D01*
X172082567Y-109599805D01*
X172079922Y-109590145D01*
X172080374Y-109588786D01*
X172079764Y-109585715D01*
X172079764Y-109442858D01*
X172080374Y-109439786D01*
X172079922Y-109438428D01*
X172082567Y-109428767D01*
X172084522Y-109418940D01*
X172085535Y-109417926D01*
X172086362Y-109414907D01*
X172133981Y-109319669D01*
X172141611Y-109309838D01*
X172142667Y-109306670D01*
X172146194Y-109303931D01*
X172148933Y-109300404D01*
X172150142Y-109300001D01*
X172148933Y-109299598D01*
X172146194Y-109296070D01*
X172142667Y-109293332D01*
X172141611Y-109290163D01*
X172133981Y-109280333D01*
X172086362Y-109185095D01*
X172085535Y-109182075D01*
X172084522Y-109181062D01*
X172082567Y-109171234D01*
X172079922Y-109161574D01*
X172080374Y-109160215D01*
X172079764Y-109157144D01*
X172079764Y-109014287D01*
X172080374Y-109011215D01*
X172079922Y-109009857D01*
X172082567Y-109000196D01*
X172084522Y-108990369D01*
X172085535Y-108989355D01*
X172086362Y-108986336D01*
X172116078Y-108926904D01*
X172084522Y-108895348D01*
X172084522Y-108847512D01*
X172118346Y-108813688D01*
X172142264Y-108808930D01*
X172808931Y-108808930D01*
X172832849Y-108813688D01*
G37*
G36*
X170700000Y-109481926D02*
G01*
X170259797Y-109481926D01*
X170259797Y-109041723D01*
X170700000Y-109041723D01*
X170700000Y-109481926D01*
G37*
G36*
X170259797Y-109041723D02*
G01*
X169819595Y-109041723D01*
X169819595Y-108161318D01*
X170259797Y-108161318D01*
X170259797Y-109041723D01*
G37*
G36*
X172347495Y-107856549D02*
G01*
X172618454Y-107856549D01*
X172621525Y-107857159D01*
X172622884Y-107856707D01*
X172632544Y-107859352D01*
X172642372Y-107861307D01*
X172643385Y-107862320D01*
X172646405Y-107863147D01*
X172741643Y-107910766D01*
X172749554Y-107916906D01*
X172757886Y-107922473D01*
X172805506Y-107970092D01*
X172811070Y-107978420D01*
X172817214Y-107986336D01*
X172864833Y-108081574D01*
X172865659Y-108084593D01*
X172866673Y-108085607D01*
X172868627Y-108095434D01*
X172871273Y-108105095D01*
X172870820Y-108106453D01*
X172871431Y-108109525D01*
X172871431Y-108252382D01*
X172870820Y-108255453D01*
X172871273Y-108256812D01*
X172868627Y-108266472D01*
X172866673Y-108276300D01*
X172865659Y-108277313D01*
X172864833Y-108280333D01*
X172817214Y-108375571D01*
X172811070Y-108383486D01*
X172805506Y-108391815D01*
X172757886Y-108439434D01*
X172749558Y-108444997D01*
X172741643Y-108451141D01*
X172646405Y-108498760D01*
X172643385Y-108499586D01*
X172642372Y-108500600D01*
X172632544Y-108502554D01*
X172622884Y-108505200D01*
X172621525Y-108504747D01*
X172618454Y-108505358D01*
X172332740Y-108505358D01*
X172329668Y-108504747D01*
X172328310Y-108505200D01*
X172318649Y-108502554D01*
X172308822Y-108500600D01*
X172307808Y-108499586D01*
X172304789Y-108498760D01*
X172209551Y-108451141D01*
X172201629Y-108444993D01*
X172193308Y-108439433D01*
X172145689Y-108391814D01*
X172140128Y-108383492D01*
X172133981Y-108375571D01*
X172086362Y-108280333D01*
X172085535Y-108277313D01*
X172084522Y-108276300D01*
X172082567Y-108266472D01*
X172079922Y-108256812D01*
X172080374Y-108255453D01*
X172079764Y-108252382D01*
X172079764Y-108124280D01*
X172204764Y-108124280D01*
X172204764Y-108237627D01*
X172241250Y-108310599D01*
X172274523Y-108343872D01*
X172347495Y-108380358D01*
X172603699Y-108380358D01*
X172676669Y-108343872D01*
X172709946Y-108310596D01*
X172746431Y-108237627D01*
X172746431Y-108124280D01*
X172709946Y-108051310D01*
X172676669Y-108018034D01*
X172603699Y-107981549D01*
X172347495Y-107981549D01*
X172274523Y-108018035D01*
X172241250Y-108051308D01*
X172204764Y-108124280D01*
X172079764Y-108124280D01*
X172079764Y-108109525D01*
X172080374Y-108106453D01*
X172079922Y-108105095D01*
X172082567Y-108095434D01*
X172084522Y-108085607D01*
X172085535Y-108084593D01*
X172086362Y-108081574D01*
X172133981Y-107986336D01*
X172140128Y-107978414D01*
X172145689Y-107970093D01*
X172193308Y-107922474D01*
X172201629Y-107916913D01*
X172209551Y-107910766D01*
X172304789Y-107863147D01*
X172307808Y-107862320D01*
X172308822Y-107861307D01*
X172318649Y-107859352D01*
X172328310Y-107856707D01*
X172329668Y-107857159D01*
X172332740Y-107856549D01*
X172347495Y-107856549D01*
G37*
G36*
X170700000Y-108161318D02*
G01*
X170259797Y-108161318D01*
X170259797Y-107721115D01*
X170700000Y-107721115D01*
X170700000Y-108161318D01*
G37*
G36*
X166297973Y-107721115D02*
G01*
X165857770Y-107721115D01*
X165857770Y-107280912D01*
X166297973Y-107280912D01*
X166297973Y-107721115D01*
G37*
G36*
X172621525Y-107000016D02*
G01*
X172622884Y-106999564D01*
X172632544Y-107002209D01*
X172642372Y-107004164D01*
X172643385Y-107005177D01*
X172646405Y-107006004D01*
X172741643Y-107053623D01*
X172749554Y-107059763D01*
X172757886Y-107065330D01*
X172805506Y-107112949D01*
X172811070Y-107121277D01*
X172817214Y-107129193D01*
X172864833Y-107224431D01*
X172865659Y-107227450D01*
X172866673Y-107228464D01*
X172868627Y-107238291D01*
X172871273Y-107247952D01*
X172870820Y-107249310D01*
X172871431Y-107252382D01*
X172871431Y-107442858D01*
X172870820Y-107445929D01*
X172871273Y-107447288D01*
X172868627Y-107456948D01*
X172866673Y-107466776D01*
X172865659Y-107467789D01*
X172864833Y-107470809D01*
X172817214Y-107566047D01*
X172802262Y-107585312D01*
X172756882Y-107600438D01*
X172714096Y-107579045D01*
X172698970Y-107533666D01*
X172705410Y-107510145D01*
X172746431Y-107428103D01*
X172746431Y-107267137D01*
X172709946Y-107194167D01*
X172676669Y-107160891D01*
X172603699Y-107124406D01*
X172347495Y-107124406D01*
X172274523Y-107160892D01*
X172241250Y-107194165D01*
X172204764Y-107267137D01*
X172204764Y-107428103D01*
X172245785Y-107510145D01*
X172252225Y-107533666D01*
X172237099Y-107579045D01*
X172194313Y-107600438D01*
X172148933Y-107585312D01*
X172133981Y-107566047D01*
X172086362Y-107470809D01*
X172085535Y-107467789D01*
X172084522Y-107466776D01*
X172082567Y-107456948D01*
X172079922Y-107447288D01*
X172080374Y-107445929D01*
X172079764Y-107442858D01*
X172079764Y-107252382D01*
X172080374Y-107249310D01*
X172079922Y-107247952D01*
X172082567Y-107238291D01*
X172084522Y-107228464D01*
X172085535Y-107227450D01*
X172086362Y-107224431D01*
X172133981Y-107129193D01*
X172140128Y-107121271D01*
X172145689Y-107112950D01*
X172193308Y-107065331D01*
X172201629Y-107059770D01*
X172209551Y-107053623D01*
X172304789Y-107006004D01*
X172307808Y-107005177D01*
X172308822Y-107004164D01*
X172318649Y-107002209D01*
X172328310Y-106999564D01*
X172329668Y-107000016D01*
X172332740Y-106999406D01*
X172618454Y-106999406D01*
X172621525Y-107000016D01*
G37*
G36*
X160575337Y-107280912D02*
G01*
X160135135Y-107280912D01*
X160135135Y-106840710D01*
X160575337Y-106840710D01*
X160575337Y-107280912D01*
G37*
G36*
X161895946Y-107280912D02*
G01*
X161015540Y-107280912D01*
X161015540Y-106840710D01*
X161895946Y-106840710D01*
X161895946Y-107280912D01*
G37*
G36*
X163216554Y-107280912D02*
G01*
X162776351Y-107280912D01*
X162336148Y-107280912D01*
X162336148Y-106840710D01*
X162776351Y-106840710D01*
X162776351Y-106400507D01*
X161895946Y-106400507D01*
X161895946Y-105960304D01*
X162776351Y-105960304D01*
X163216554Y-105960304D01*
X163216554Y-107280912D01*
G37*
G36*
X164096959Y-105520101D02*
G01*
X164537162Y-105520101D01*
X164537162Y-105960304D01*
X164977365Y-105960304D01*
X164977365Y-106400507D01*
X164537162Y-106400507D01*
X164537162Y-106840710D01*
X164096959Y-106840710D01*
X164096959Y-107280912D01*
X163656756Y-107280912D01*
X163656756Y-105960304D01*
X163216554Y-105960304D01*
X163216554Y-105520101D01*
X163656756Y-105520101D01*
X163656756Y-105079899D01*
X164096959Y-105079899D01*
X164096959Y-105520101D01*
G37*
G36*
X170259797Y-106840710D02*
G01*
X170700000Y-106840710D01*
X170700000Y-107280912D01*
X170259797Y-107280912D01*
X169819595Y-107280912D01*
X169819595Y-105960304D01*
X170259797Y-105960304D01*
X170259797Y-106840710D01*
G37*
G36*
X172785230Y-106527974D02*
G01*
X172785232Y-106527976D01*
X172805506Y-106541522D01*
X172853125Y-106589141D01*
X172866670Y-106609414D01*
X172866673Y-106609417D01*
X172866673Y-106609418D01*
X172866673Y-106657252D01*
X172866673Y-106657253D01*
X172866670Y-106657255D01*
X172853125Y-106677529D01*
X172805506Y-106725148D01*
X172785232Y-106738693D01*
X172785230Y-106738696D01*
X172737395Y-106738696D01*
X172717118Y-106725149D01*
X172669498Y-106677530D01*
X172655950Y-106657253D01*
X172655949Y-106609418D01*
X172655950Y-106609417D01*
X172669498Y-106589140D01*
X172717118Y-106541521D01*
X172737395Y-106527973D01*
X172785230Y-106527974D01*
G37*
G36*
X160575337Y-105960304D02*
G01*
X161015540Y-105960304D01*
X161015540Y-106400507D01*
X160575337Y-106400507D01*
X160135135Y-106400507D01*
X159694932Y-106400507D01*
X159694932Y-105960304D01*
X160135135Y-105960304D01*
X160135135Y-105520101D01*
X160575337Y-105520101D01*
X160575337Y-105960304D01*
G37*
G36*
X172669144Y-106047635D02*
G01*
X172670503Y-106047183D01*
X172680163Y-106049828D01*
X172689991Y-106051783D01*
X172691004Y-106052796D01*
X172694024Y-106053623D01*
X172789262Y-106101242D01*
X172799093Y-106108871D01*
X172802262Y-106109928D01*
X172805000Y-106113456D01*
X172808528Y-106116194D01*
X172809583Y-106119362D01*
X172817214Y-106129193D01*
X172864833Y-106224431D01*
X172871273Y-106247952D01*
X172856147Y-106293331D01*
X172813361Y-106314724D01*
X172767981Y-106299598D01*
X172753029Y-106280333D01*
X172714727Y-106203729D01*
X172651318Y-106172025D01*
X171808931Y-106172025D01*
X171785013Y-106167267D01*
X171751189Y-106133443D01*
X171751189Y-106085607D01*
X171785013Y-106051783D01*
X171808931Y-106047025D01*
X172666073Y-106047025D01*
X172669144Y-106047635D01*
G37*
G36*
X161455743Y-105520101D02*
G01*
X161895946Y-105520101D01*
X161895946Y-105960304D01*
X161455743Y-105960304D01*
X161015540Y-105960304D01*
X161015540Y-105520101D01*
X160575337Y-105520101D01*
X160575337Y-105079899D01*
X161015540Y-105079899D01*
X161455743Y-105079899D01*
X161455743Y-105520101D01*
G37*
G36*
X168058784Y-105960304D02*
G01*
X167618581Y-105960304D01*
X167618581Y-105520101D01*
X168058784Y-105520101D01*
X168058784Y-105960304D01*
G37*
G36*
X169379392Y-105079899D02*
G01*
X169819595Y-105079899D01*
X170259797Y-105079899D01*
X170259797Y-105520101D01*
X169819595Y-105520101D01*
X169819595Y-105960304D01*
X169379392Y-105960304D01*
X169379392Y-105520101D01*
X168939189Y-105520101D01*
X168939189Y-104639696D01*
X169379392Y-104639696D01*
X169379392Y-105079899D01*
G37*
G36*
X172832849Y-105432735D02*
G01*
X172866673Y-105466559D01*
X172866673Y-105514395D01*
X172832849Y-105548219D01*
X172808931Y-105552977D01*
X172347495Y-105552977D01*
X172274523Y-105589463D01*
X172241250Y-105622736D01*
X172204764Y-105695708D01*
X172204764Y-105776191D01*
X172200006Y-105800109D01*
X172166182Y-105833933D01*
X172118346Y-105833933D01*
X172084522Y-105800109D01*
X172079764Y-105776191D01*
X172079764Y-105680953D01*
X172080374Y-105677881D01*
X172079922Y-105676523D01*
X172082567Y-105666862D01*
X172084522Y-105657035D01*
X172085535Y-105656021D01*
X172086362Y-105653002D01*
X172133981Y-105557764D01*
X172138307Y-105552189D01*
X172118346Y-105548219D01*
X172084522Y-105514395D01*
X172084522Y-105466559D01*
X172118346Y-105432735D01*
X172142264Y-105427977D01*
X172808931Y-105427977D01*
X172832849Y-105432735D01*
G37*
G36*
X160135135Y-105520101D02*
G01*
X159694932Y-105520101D01*
X159694932Y-104639696D01*
X160135135Y-104639696D01*
X160135135Y-105520101D01*
G37*
G36*
X162336148Y-105079899D02*
G01*
X162776351Y-105079899D01*
X162776351Y-105520101D01*
X162336148Y-105520101D01*
X161895946Y-105520101D01*
X161895946Y-104639696D01*
X162336148Y-104639696D01*
X162336148Y-105079899D01*
G37*
G36*
X165417567Y-105520101D02*
G01*
X164977365Y-105520101D01*
X164537162Y-105520101D01*
X164537162Y-105079899D01*
X164977365Y-105079899D01*
X164977365Y-104639696D01*
X165417567Y-104639696D01*
X165417567Y-105520101D01*
G37*
G36*
X163216554Y-104639696D02*
G01*
X163656756Y-104639696D01*
X163656756Y-105079899D01*
X163216554Y-105079899D01*
X162776351Y-105079899D01*
X162776351Y-104639696D01*
X162336148Y-104639696D01*
X162336148Y-104199493D01*
X162776351Y-104199493D01*
X163216554Y-104199493D01*
X163216554Y-104639696D01*
G37*
G36*
X172669144Y-104523825D02*
G01*
X172670503Y-104523373D01*
X172680163Y-104526018D01*
X172689991Y-104527973D01*
X172691004Y-104528986D01*
X172694024Y-104529813D01*
X172789262Y-104577432D01*
X172799093Y-104585061D01*
X172802262Y-104586118D01*
X172805000Y-104589646D01*
X172808528Y-104592384D01*
X172809583Y-104595552D01*
X172817214Y-104605383D01*
X172864833Y-104700621D01*
X172865659Y-104703640D01*
X172866673Y-104704654D01*
X172868627Y-104714481D01*
X172871273Y-104724142D01*
X172870820Y-104725500D01*
X172871431Y-104728572D01*
X172871431Y-104871429D01*
X172870820Y-104874500D01*
X172871273Y-104875859D01*
X172868627Y-104885519D01*
X172866673Y-104895347D01*
X172865659Y-104896360D01*
X172864833Y-104899380D01*
X172835117Y-104958812D01*
X172866673Y-104990368D01*
X172866673Y-105038204D01*
X172832849Y-105072028D01*
X172808931Y-105076786D01*
X172142264Y-105076786D01*
X172118346Y-105072028D01*
X172084522Y-105038204D01*
X172084522Y-104990368D01*
X172118346Y-104956544D01*
X172142264Y-104951786D01*
X172687803Y-104951786D01*
X172709946Y-104929643D01*
X172746431Y-104856674D01*
X172746431Y-104743327D01*
X172714727Y-104679919D01*
X172651318Y-104648215D01*
X172142264Y-104648215D01*
X172118346Y-104643457D01*
X172084522Y-104609633D01*
X172084522Y-104561797D01*
X172118346Y-104527973D01*
X172142264Y-104523215D01*
X172666073Y-104523215D01*
X172669144Y-104523825D01*
G37*
G36*
X160575337Y-104639696D02*
G01*
X160135135Y-104639696D01*
X160135135Y-103759290D01*
X160575337Y-103759290D01*
X160575337Y-104639696D01*
G37*
G36*
X164537162Y-104639696D02*
G01*
X164096959Y-104639696D01*
X164096959Y-104199493D01*
X164537162Y-104199493D01*
X164537162Y-104639696D01*
G37*
G36*
X170259797Y-104639696D02*
G01*
X169819595Y-104639696D01*
X169819595Y-104199493D01*
X170259797Y-104199493D01*
X170259797Y-104639696D01*
G37*
G36*
X172163285Y-103669713D02*
G01*
X172807678Y-103899853D01*
X173011904Y-103818163D01*
X173043278Y-103786789D01*
X173086362Y-103700621D01*
X173101314Y-103681356D01*
X173146694Y-103666230D01*
X173189480Y-103687622D01*
X173204606Y-103733002D01*
X173198166Y-103756523D01*
X173150547Y-103851761D01*
X173144399Y-103859682D01*
X173138839Y-103868004D01*
X173091220Y-103915623D01*
X173090781Y-103915915D01*
X173090678Y-103916158D01*
X173080750Y-103922618D01*
X173070943Y-103929171D01*
X173070680Y-103929171D01*
X173070238Y-103929459D01*
X172832143Y-104024697D01*
X172830972Y-104024914D01*
X172829952Y-104025526D01*
X172163285Y-104263621D01*
X172139160Y-104267184D01*
X172095931Y-104246707D01*
X172079842Y-104201658D01*
X172100319Y-104158428D01*
X172121243Y-104145903D01*
X172623104Y-103966667D01*
X172121243Y-103787431D01*
X172100319Y-103774906D01*
X172079841Y-103731676D01*
X172095930Y-103686627D01*
X172139160Y-103666149D01*
X172163285Y-103669713D01*
G37*
G36*
X161895946Y-104199493D02*
G01*
X161455743Y-104199493D01*
X161455743Y-103759290D01*
X161015540Y-103759290D01*
X161015540Y-103319088D01*
X161455743Y-103319088D01*
X161895946Y-103319088D01*
X161895946Y-104199493D01*
G37*
G36*
X164096959Y-104199493D02*
G01*
X163216554Y-104199493D01*
X163216554Y-103759290D01*
X164096959Y-103759290D01*
X164096959Y-104199493D01*
G37*
G36*
X165417567Y-104199493D02*
G01*
X164537162Y-104199493D01*
X164537162Y-103759290D01*
X165417567Y-103759290D01*
X165417567Y-104199493D01*
G37*
G36*
X162776351Y-103759290D02*
G01*
X162336148Y-103759290D01*
X162336148Y-103319088D01*
X162776351Y-103319088D01*
X162776351Y-103759290D01*
G37*
G36*
X170700000Y-103759290D02*
G01*
X169819595Y-103759290D01*
X169819595Y-103319088D01*
X170700000Y-103319088D01*
X170700000Y-103759290D01*
G37*
G36*
X172832849Y-102861306D02*
G01*
X172866673Y-102895130D01*
X172866673Y-102942966D01*
X172832849Y-102976790D01*
X172808931Y-102981548D01*
X172263390Y-102981548D01*
X172241250Y-103003688D01*
X172204764Y-103076660D01*
X172204764Y-103190007D01*
X172236468Y-103253415D01*
X172299876Y-103285119D01*
X172808931Y-103285119D01*
X172832849Y-103289877D01*
X172866673Y-103323701D01*
X172866673Y-103371537D01*
X172832849Y-103405361D01*
X172808931Y-103410119D01*
X172285121Y-103410119D01*
X172282049Y-103409508D01*
X172280691Y-103409961D01*
X172271030Y-103407315D01*
X172261203Y-103405361D01*
X172260189Y-103404347D01*
X172257170Y-103403521D01*
X172161932Y-103355902D01*
X172152101Y-103348271D01*
X172148933Y-103347216D01*
X172146194Y-103343688D01*
X172142667Y-103340950D01*
X172141611Y-103337781D01*
X172133981Y-103327951D01*
X172086362Y-103232713D01*
X172085535Y-103229693D01*
X172084522Y-103228680D01*
X172082567Y-103218852D01*
X172079922Y-103209192D01*
X172080374Y-103207833D01*
X172079764Y-103204762D01*
X172079764Y-103061905D01*
X172080374Y-103058833D01*
X172079922Y-103057475D01*
X172082567Y-103047814D01*
X172084522Y-103037987D01*
X172085535Y-103036973D01*
X172086362Y-103033954D01*
X172116078Y-102974522D01*
X172084522Y-102942966D01*
X172084522Y-102895130D01*
X172118346Y-102861306D01*
X172142264Y-102856548D01*
X172808931Y-102856548D01*
X172832849Y-102861306D01*
G37*
G36*
X163656756Y-102878885D02*
G01*
X164096959Y-102878885D01*
X164096959Y-103319088D01*
X163656756Y-103319088D01*
X163216554Y-103319088D01*
X163216554Y-101998480D01*
X163656756Y-101998480D01*
X163656756Y-102878885D01*
G37*
G36*
X164977365Y-103319088D02*
G01*
X164537162Y-103319088D01*
X164537162Y-102878885D01*
X164977365Y-102878885D01*
X164977365Y-103319088D01*
G37*
G36*
X161895946Y-101998480D02*
G01*
X160575337Y-101998480D01*
X160575337Y-100677871D01*
X161895946Y-100677871D01*
X161895946Y-101998480D01*
G37*
G36*
X160135135Y-99797466D02*
G01*
X162336148Y-99797466D01*
X162776351Y-99797466D01*
X162776351Y-102878885D01*
X162336148Y-102878885D01*
X160135135Y-102878885D01*
X159694932Y-102878885D01*
X159694932Y-102438682D01*
X160135135Y-102438682D01*
X162336148Y-102438682D01*
X162336148Y-100237669D01*
X160135135Y-100237669D01*
X160135135Y-102438682D01*
X159694932Y-102438682D01*
X159694932Y-99797466D01*
X160135135Y-99797466D01*
G37*
G36*
X165417567Y-102878885D02*
G01*
X164977365Y-102878885D01*
X164977365Y-102438682D01*
X165417567Y-102438682D01*
X165417567Y-102878885D01*
G37*
G36*
X169819595Y-101998480D02*
G01*
X168498986Y-101998480D01*
X168498986Y-100677871D01*
X169819595Y-100677871D01*
X169819595Y-101998480D01*
G37*
G36*
X168058784Y-99797466D02*
G01*
X170259797Y-99797466D01*
X170700000Y-99797466D01*
X170700000Y-102878885D01*
X170259797Y-102878885D01*
X168058784Y-102878885D01*
X167618581Y-102878885D01*
X167618581Y-102438682D01*
X168058784Y-102438682D01*
X170259797Y-102438682D01*
X170259797Y-100237669D01*
X168058784Y-100237669D01*
X168058784Y-102438682D01*
X167618581Y-102438682D01*
X167618581Y-99797466D01*
X168058784Y-99797466D01*
G37*
G36*
X171900744Y-102351045D02*
G01*
X171948363Y-102398664D01*
X171961908Y-102418937D01*
X171961911Y-102418940D01*
X171961911Y-102418941D01*
X171961911Y-102466775D01*
X171961911Y-102466776D01*
X171961908Y-102466778D01*
X171948363Y-102487052D01*
X171900744Y-102534671D01*
X171880467Y-102548219D01*
X171832633Y-102548219D01*
X171812356Y-102534671D01*
X171764737Y-102487052D01*
X171751191Y-102466778D01*
X171751189Y-102466776D01*
X171751189Y-102418940D01*
X171751191Y-102418937D01*
X171764737Y-102398664D01*
X171812356Y-102351045D01*
X171832633Y-102337497D01*
X171880467Y-102337497D01*
X171900744Y-102351045D01*
G37*
G36*
X172832849Y-102385116D02*
G01*
X172866673Y-102418940D01*
X172866673Y-102466776D01*
X172832849Y-102500600D01*
X172808931Y-102505358D01*
X172142264Y-102505358D01*
X172118346Y-102500600D01*
X172084522Y-102466776D01*
X172084522Y-102418940D01*
X172118346Y-102385116D01*
X172142264Y-102380358D01*
X172808931Y-102380358D01*
X172832849Y-102385116D01*
G37*
G36*
X172200006Y-101704654D02*
G01*
X172204764Y-101728572D01*
X172204764Y-101808929D01*
X172666073Y-101808929D01*
X172669144Y-101809539D01*
X172670503Y-101809087D01*
X172680163Y-101811732D01*
X172689991Y-101813687D01*
X172691004Y-101814700D01*
X172694024Y-101815527D01*
X172789262Y-101863146D01*
X172799093Y-101870775D01*
X172802262Y-101871832D01*
X172805000Y-101875360D01*
X172808528Y-101878098D01*
X172809583Y-101881266D01*
X172817214Y-101891097D01*
X172864833Y-101986335D01*
X172865659Y-101989354D01*
X172866673Y-101990368D01*
X172868627Y-102000195D01*
X172871273Y-102009856D01*
X172870820Y-102011214D01*
X172871431Y-102014286D01*
X172871431Y-102109524D01*
X172866673Y-102133442D01*
X172832849Y-102167266D01*
X172785013Y-102167266D01*
X172751189Y-102133442D01*
X172746431Y-102109524D01*
X172746431Y-102029041D01*
X172714727Y-101965633D01*
X172651318Y-101933929D01*
X172204764Y-101933929D01*
X172204764Y-102109524D01*
X172200006Y-102133442D01*
X172166182Y-102167266D01*
X172118346Y-102167266D01*
X172084522Y-102133442D01*
X172079764Y-102109524D01*
X172079764Y-101933929D01*
X171808931Y-101933929D01*
X171785013Y-101929171D01*
X171751189Y-101895347D01*
X171751189Y-101847511D01*
X171785013Y-101813687D01*
X171808931Y-101808929D01*
X172079764Y-101808929D01*
X172079764Y-101728572D01*
X172084522Y-101704654D01*
X172118346Y-101670830D01*
X172166182Y-101670830D01*
X172200006Y-101704654D01*
G37*
G36*
X173081803Y-100629023D02*
G01*
X173108338Y-100668825D01*
X173098956Y-100715730D01*
X173081695Y-100732956D01*
X171795980Y-101590098D01*
X171773440Y-101599407D01*
X171726535Y-101590026D01*
X171700000Y-101550224D01*
X171709381Y-101503318D01*
X171726643Y-101486092D01*
X173012357Y-100628950D01*
X173034898Y-100619641D01*
X173081803Y-100629023D01*
G37*
G36*
X167178378Y-101118074D02*
G01*
X166738176Y-101118074D01*
X166738176Y-100677871D01*
X167178378Y-100677871D01*
X167178378Y-101118074D01*
G37*
G36*
X163656756Y-100237669D02*
G01*
X164096959Y-100237669D01*
X164096959Y-100677871D01*
X163656756Y-100677871D01*
X163216554Y-100677871D01*
X163216554Y-99797466D01*
X163656756Y-99797466D01*
X163656756Y-100237669D01*
G37*
G36*
X173081803Y-99581404D02*
G01*
X173108338Y-99621206D01*
X173098956Y-99668111D01*
X173081695Y-99685337D01*
X171795980Y-100542479D01*
X171773440Y-100551788D01*
X171726535Y-100542407D01*
X171700000Y-100502605D01*
X171709381Y-100455699D01*
X171726643Y-100438473D01*
X173012357Y-99581331D01*
X173034898Y-99572022D01*
X173081803Y-99581404D01*
G37*
G36*
X167178378Y-100237669D02*
G01*
X165417567Y-100237669D01*
X165417567Y-99797466D01*
X167178378Y-99797466D01*
X167178378Y-100237669D01*
G37*
G36*
X172281696Y-99208188D02*
G01*
X172329315Y-99255807D01*
X172342860Y-99276080D01*
X172342863Y-99276083D01*
X172342863Y-99276084D01*
X172342863Y-99323918D01*
X172342863Y-99323919D01*
X172342860Y-99323921D01*
X172329315Y-99344195D01*
X172281696Y-99391814D01*
X172261419Y-99405362D01*
X172213585Y-99405362D01*
X172193308Y-99391814D01*
X172145689Y-99344195D01*
X172132143Y-99323921D01*
X172132141Y-99323919D01*
X172132141Y-99276083D01*
X172132143Y-99276080D01*
X172145689Y-99255807D01*
X172193308Y-99208188D01*
X172213585Y-99194640D01*
X172261419Y-99194640D01*
X172281696Y-99208188D01*
G37*
G36*
X172785230Y-99194640D02*
G01*
X172785232Y-99194642D01*
X172805506Y-99208188D01*
X172853125Y-99255807D01*
X172866670Y-99276080D01*
X172866673Y-99276083D01*
X172866673Y-99276084D01*
X172866673Y-99323918D01*
X172866673Y-99323919D01*
X172866670Y-99323921D01*
X172853125Y-99344195D01*
X172805506Y-99391814D01*
X172785232Y-99405359D01*
X172785230Y-99405362D01*
X172737395Y-99405362D01*
X172717118Y-99391815D01*
X172669498Y-99344196D01*
X172655950Y-99323919D01*
X172655949Y-99276084D01*
X172655950Y-99276083D01*
X172669498Y-99255806D01*
X172717118Y-99208187D01*
X172737395Y-99194639D01*
X172785230Y-99194640D01*
G37*
G36*
X172335811Y-98380968D02*
G01*
X172337170Y-98380516D01*
X172346830Y-98383161D01*
X172356658Y-98385116D01*
X172357671Y-98386129D01*
X172360691Y-98386956D01*
X172455929Y-98434575D01*
X172465759Y-98442205D01*
X172468928Y-98443261D01*
X172471666Y-98446788D01*
X172475194Y-98449527D01*
X172476249Y-98452695D01*
X172483880Y-98462526D01*
X172531499Y-98557764D01*
X172532325Y-98560783D01*
X172533339Y-98561797D01*
X172535293Y-98571624D01*
X172537939Y-98581285D01*
X172537486Y-98582643D01*
X172538097Y-98585715D01*
X172538097Y-98713817D01*
X172569801Y-98777225D01*
X172633209Y-98808929D01*
X172651319Y-98808929D01*
X172714727Y-98777225D01*
X172746431Y-98713817D01*
X172746431Y-98552851D01*
X172705410Y-98470809D01*
X172698970Y-98447288D01*
X172714096Y-98401908D01*
X172756882Y-98380516D01*
X172802262Y-98395642D01*
X172817214Y-98414907D01*
X172864833Y-98510145D01*
X172865659Y-98513164D01*
X172866673Y-98514178D01*
X172868627Y-98524005D01*
X172871273Y-98533666D01*
X172870820Y-98535024D01*
X172871431Y-98538096D01*
X172871431Y-98728572D01*
X172870820Y-98731643D01*
X172871273Y-98733002D01*
X172868627Y-98742662D01*
X172866673Y-98752490D01*
X172865659Y-98753503D01*
X172864833Y-98756523D01*
X172817214Y-98851761D01*
X172809583Y-98861591D01*
X172808528Y-98864760D01*
X172805000Y-98867498D01*
X172802262Y-98871026D01*
X172799093Y-98872081D01*
X172789263Y-98879712D01*
X172694024Y-98927331D01*
X172691004Y-98928157D01*
X172689991Y-98929171D01*
X172680163Y-98931125D01*
X172670503Y-98933771D01*
X172669144Y-98933318D01*
X172666073Y-98933929D01*
X172618454Y-98933929D01*
X172615382Y-98933318D01*
X172614024Y-98933771D01*
X172604363Y-98931125D01*
X172594536Y-98929171D01*
X172593522Y-98928157D01*
X172590503Y-98927331D01*
X172495265Y-98879712D01*
X172485434Y-98872081D01*
X172482266Y-98871026D01*
X172479527Y-98867498D01*
X172476000Y-98864760D01*
X172474944Y-98861591D01*
X172467314Y-98851761D01*
X172419695Y-98756523D01*
X172418868Y-98753503D01*
X172417855Y-98752490D01*
X172415900Y-98742662D01*
X172413255Y-98733002D01*
X172413707Y-98731643D01*
X172413097Y-98728572D01*
X172413097Y-98600470D01*
X172381393Y-98537062D01*
X172317985Y-98505358D01*
X172299876Y-98505358D01*
X172236468Y-98537062D01*
X172204764Y-98600470D01*
X172204764Y-98713817D01*
X172245785Y-98795859D01*
X172252225Y-98819380D01*
X172237099Y-98864759D01*
X172194313Y-98886152D01*
X172148933Y-98871026D01*
X172133981Y-98851761D01*
X172086362Y-98756523D01*
X172085535Y-98753503D01*
X172084522Y-98752490D01*
X172082567Y-98742662D01*
X172079922Y-98733002D01*
X172080374Y-98731643D01*
X172079764Y-98728572D01*
X172079764Y-98585715D01*
X172080374Y-98582643D01*
X172079922Y-98581285D01*
X172082567Y-98571624D01*
X172084522Y-98561797D01*
X172085535Y-98560783D01*
X172086362Y-98557764D01*
X172133981Y-98462526D01*
X172141611Y-98452695D01*
X172142667Y-98449527D01*
X172146194Y-98446788D01*
X172148933Y-98443261D01*
X172152101Y-98442205D01*
X172161932Y-98434575D01*
X172257170Y-98386956D01*
X172260189Y-98386129D01*
X172261203Y-98385116D01*
X172271030Y-98383161D01*
X172280691Y-98380516D01*
X172282049Y-98380968D01*
X172285121Y-98380358D01*
X172332740Y-98380358D01*
X172335811Y-98380968D01*
G37*
G36*
X172228510Y-97523215D02*
G01*
X173142264Y-97523215D01*
X173166182Y-97527973D01*
X173200006Y-97561797D01*
X173200006Y-97609633D01*
X173166182Y-97643457D01*
X173142264Y-97648215D01*
X172862439Y-97648215D01*
X172864833Y-97653002D01*
X172865659Y-97656021D01*
X172866673Y-97657035D01*
X172868627Y-97666862D01*
X172871273Y-97676523D01*
X172870820Y-97677881D01*
X172871431Y-97680953D01*
X172871431Y-97871429D01*
X172870820Y-97874500D01*
X172871273Y-97875859D01*
X172868627Y-97885519D01*
X172866673Y-97895347D01*
X172865659Y-97896360D01*
X172864833Y-97899380D01*
X172817214Y-97994618D01*
X172811070Y-98002533D01*
X172805506Y-98010862D01*
X172757886Y-98058481D01*
X172749558Y-98064044D01*
X172741643Y-98070188D01*
X172646405Y-98117807D01*
X172643385Y-98118633D01*
X172642372Y-98119647D01*
X172632544Y-98121601D01*
X172622884Y-98124247D01*
X172621525Y-98123794D01*
X172618454Y-98124405D01*
X172332740Y-98124405D01*
X172329668Y-98123794D01*
X172328310Y-98124247D01*
X172318649Y-98121601D01*
X172308822Y-98119647D01*
X172307808Y-98118633D01*
X172304789Y-98117807D01*
X172209551Y-98070188D01*
X172201629Y-98064040D01*
X172193308Y-98058480D01*
X172145689Y-98010861D01*
X172140128Y-98002539D01*
X172133981Y-97994618D01*
X172086362Y-97899380D01*
X172085535Y-97896360D01*
X172084522Y-97895347D01*
X172082567Y-97885519D01*
X172079922Y-97875859D01*
X172080374Y-97874500D01*
X172079764Y-97871429D01*
X172079764Y-97695708D01*
X172204764Y-97695708D01*
X172204764Y-97856674D01*
X172241250Y-97929646D01*
X172274523Y-97962919D01*
X172347495Y-97999405D01*
X172603699Y-97999405D01*
X172676669Y-97962919D01*
X172709946Y-97929643D01*
X172746431Y-97856674D01*
X172746431Y-97695708D01*
X172722684Y-97648215D01*
X172228510Y-97648215D01*
X172204764Y-97695708D01*
X172079764Y-97695708D01*
X172079764Y-97680953D01*
X172080374Y-97677881D01*
X172079922Y-97676523D01*
X172082567Y-97666862D01*
X172084522Y-97657035D01*
X172085535Y-97656021D01*
X172086362Y-97653002D01*
X172100205Y-97625316D01*
X172084522Y-97609633D01*
X172084522Y-97561797D01*
X172118346Y-97527973D01*
X172142264Y-97523215D01*
X172228510Y-97523215D01*
G37*
G36*
X172200006Y-96847511D02*
G01*
X172204764Y-96871429D01*
X172204764Y-96951786D01*
X172666073Y-96951786D01*
X172669144Y-96952396D01*
X172670503Y-96951944D01*
X172680163Y-96954589D01*
X172689991Y-96956544D01*
X172691004Y-96957557D01*
X172694024Y-96958384D01*
X172789262Y-97006003D01*
X172799093Y-97013632D01*
X172802262Y-97014689D01*
X172805000Y-97018217D01*
X172808528Y-97020955D01*
X172809583Y-97024123D01*
X172817214Y-97033954D01*
X172864833Y-97129192D01*
X172865659Y-97132211D01*
X172866673Y-97133225D01*
X172868627Y-97143052D01*
X172871273Y-97152713D01*
X172870820Y-97154071D01*
X172871431Y-97157143D01*
X172871431Y-97252381D01*
X172866673Y-97276299D01*
X172832849Y-97310123D01*
X172785013Y-97310123D01*
X172751189Y-97276299D01*
X172746431Y-97252381D01*
X172746431Y-97171898D01*
X172714727Y-97108490D01*
X172651318Y-97076786D01*
X172204764Y-97076786D01*
X172204764Y-97252381D01*
X172200006Y-97276299D01*
X172166182Y-97310123D01*
X172118346Y-97310123D01*
X172084522Y-97276299D01*
X172079764Y-97252381D01*
X172079764Y-97076786D01*
X171808931Y-97076786D01*
X171785013Y-97072028D01*
X171751189Y-97038204D01*
X171751189Y-96990368D01*
X171785013Y-96956544D01*
X171808931Y-96951786D01*
X172079764Y-96951786D01*
X172079764Y-96871429D01*
X172084522Y-96847511D01*
X172118346Y-96813687D01*
X172166182Y-96813687D01*
X172200006Y-96847511D01*
G37*
G36*
X172200006Y-96276082D02*
G01*
X172204764Y-96300000D01*
X172204764Y-96380357D01*
X172666073Y-96380357D01*
X172669144Y-96380967D01*
X172670503Y-96380515D01*
X172680163Y-96383160D01*
X172689991Y-96385115D01*
X172691004Y-96386128D01*
X172694024Y-96386955D01*
X172789262Y-96434574D01*
X172799093Y-96442203D01*
X172802262Y-96443260D01*
X172805000Y-96446788D01*
X172808528Y-96449526D01*
X172809583Y-96452694D01*
X172817214Y-96462525D01*
X172864833Y-96557763D01*
X172865659Y-96560782D01*
X172866673Y-96561796D01*
X172868627Y-96571623D01*
X172871273Y-96581284D01*
X172870820Y-96582642D01*
X172871431Y-96585714D01*
X172871431Y-96680952D01*
X172866673Y-96704870D01*
X172832849Y-96738694D01*
X172785013Y-96738694D01*
X172751189Y-96704870D01*
X172746431Y-96680952D01*
X172746431Y-96600469D01*
X172714727Y-96537061D01*
X172651318Y-96505357D01*
X172204764Y-96505357D01*
X172204764Y-96680952D01*
X172200006Y-96704870D01*
X172166182Y-96738694D01*
X172118346Y-96738694D01*
X172084522Y-96704870D01*
X172079764Y-96680952D01*
X172079764Y-96505357D01*
X171808931Y-96505357D01*
X171785013Y-96500599D01*
X171751189Y-96466775D01*
X171751189Y-96418939D01*
X171785013Y-96385115D01*
X171808931Y-96380357D01*
X172079764Y-96380357D01*
X172079764Y-96300000D01*
X172084522Y-96276082D01*
X172118346Y-96242258D01*
X172166182Y-96242258D01*
X172200006Y-96276082D01*
G37*
G36*
X172832849Y-95480353D02*
G01*
X172866673Y-95514177D01*
X172866673Y-95562013D01*
X172832849Y-95595837D01*
X172808931Y-95600595D01*
X172263390Y-95600595D01*
X172241250Y-95622735D01*
X172204764Y-95695707D01*
X172204764Y-95809054D01*
X172236468Y-95872462D01*
X172299876Y-95904166D01*
X172808931Y-95904166D01*
X172832849Y-95908924D01*
X172866673Y-95942748D01*
X172866673Y-95990584D01*
X172832849Y-96024408D01*
X172808931Y-96029166D01*
X172285121Y-96029166D01*
X172282049Y-96028555D01*
X172280691Y-96029008D01*
X172271030Y-96026362D01*
X172261203Y-96024408D01*
X172260189Y-96023394D01*
X172257170Y-96022568D01*
X172161932Y-95974949D01*
X172152101Y-95967318D01*
X172148933Y-95966263D01*
X172146194Y-95962735D01*
X172142667Y-95959997D01*
X172141611Y-95956828D01*
X172133981Y-95946998D01*
X172086362Y-95851760D01*
X172085535Y-95848740D01*
X172084522Y-95847727D01*
X172082567Y-95837899D01*
X172079922Y-95828239D01*
X172080374Y-95826880D01*
X172079764Y-95823809D01*
X172079764Y-95680952D01*
X172080374Y-95677880D01*
X172079922Y-95676522D01*
X172082567Y-95666861D01*
X172084522Y-95657034D01*
X172085535Y-95656020D01*
X172086362Y-95653001D01*
X172112565Y-95600595D01*
X171808931Y-95600595D01*
X171785013Y-95595837D01*
X171751189Y-95562013D01*
X171751189Y-95514177D01*
X171785013Y-95480353D01*
X171808931Y-95475595D01*
X172808931Y-95475595D01*
X172832849Y-95480353D01*
G37*
D11*
X117499999Y-74522717D02*
X117499999Y-74522717D01*
G75*
G02*
X119499999Y-72522717I2000001J17D01*
G01*
X172479540Y-72522717D01*
G75*
G02*
X174479540Y-74522717I-40J-1999983D01*
G01*
X174479540Y-114512349D01*
G75*
G02*
X172479540Y-116512349I-2000040J-51D01*
G01*
X119499999Y-116512349D01*
G75*
G02*
X117499999Y-114512349I1J1999949D01*
G01*
X117499999Y-74522717D01*
D12*
X133095237Y-104649847D02*
X133095237Y-103983180D01*
X133095237Y-104078418D02*
X133047618Y-104030799D01*
X133047618Y-104030799D02*
X132952380Y-103983180D01*
X132952380Y-103983180D02*
X132809523Y-103983180D01*
X132809523Y-103983180D02*
X132714285Y-104030799D01*
X132714285Y-104030799D02*
X132666666Y-104126037D01*
X132666666Y-104126037D02*
X132666666Y-104649847D01*
X132666666Y-104126037D02*
X132619047Y-104030799D01*
X132619047Y-104030799D02*
X132523809Y-103983180D01*
X132523809Y-103983180D02*
X132380952Y-103983180D01*
X132380952Y-103983180D02*
X132285713Y-104030799D01*
X132285713Y-104030799D02*
X132238094Y-104126037D01*
X132238094Y-104126037D02*
X132238094Y-104649847D01*
X131333333Y-104649847D02*
X131333333Y-104126037D01*
X131333333Y-104126037D02*
X131380952Y-104030799D01*
X131380952Y-104030799D02*
X131476190Y-103983180D01*
X131476190Y-103983180D02*
X131666666Y-103983180D01*
X131666666Y-103983180D02*
X131761904Y-104030799D01*
X131333333Y-104602228D02*
X131428571Y-104649847D01*
X131428571Y-104649847D02*
X131666666Y-104649847D01*
X131666666Y-104649847D02*
X131761904Y-104602228D01*
X131761904Y-104602228D02*
X131809523Y-104506989D01*
X131809523Y-104506989D02*
X131809523Y-104411751D01*
X131809523Y-104411751D02*
X131761904Y-104316513D01*
X131761904Y-104316513D02*
X131666666Y-104268894D01*
X131666666Y-104268894D02*
X131428571Y-104268894D01*
X131428571Y-104268894D02*
X131333333Y-104221275D01*
X130428571Y-104649847D02*
X130428571Y-103649847D01*
X130428571Y-104602228D02*
X130523809Y-104649847D01*
X130523809Y-104649847D02*
X130714285Y-104649847D01*
X130714285Y-104649847D02*
X130809523Y-104602228D01*
X130809523Y-104602228D02*
X130857142Y-104554608D01*
X130857142Y-104554608D02*
X130904761Y-104459370D01*
X130904761Y-104459370D02*
X130904761Y-104173656D01*
X130904761Y-104173656D02*
X130857142Y-104078418D01*
X130857142Y-104078418D02*
X130809523Y-104030799D01*
X130809523Y-104030799D02*
X130714285Y-103983180D01*
X130714285Y-103983180D02*
X130523809Y-103983180D01*
X130523809Y-103983180D02*
X130428571Y-104030799D01*
X129571428Y-104602228D02*
X129666666Y-104649847D01*
X129666666Y-104649847D02*
X129857142Y-104649847D01*
X129857142Y-104649847D02*
X129952380Y-104602228D01*
X129952380Y-104602228D02*
X129999999Y-104506989D01*
X129999999Y-104506989D02*
X129999999Y-104126037D01*
X129999999Y-104126037D02*
X129952380Y-104030799D01*
X129952380Y-104030799D02*
X129857142Y-103983180D01*
X129857142Y-103983180D02*
X129666666Y-103983180D01*
X129666666Y-103983180D02*
X129571428Y-104030799D01*
X129571428Y-104030799D02*
X129523809Y-104126037D01*
X129523809Y-104126037D02*
X129523809Y-104221275D01*
X129523809Y-104221275D02*
X129999999Y-104316513D01*
X128333332Y-104649847D02*
X128333332Y-103649847D01*
X128333332Y-104030799D02*
X128238094Y-103983180D01*
X128238094Y-103983180D02*
X128047618Y-103983180D01*
X128047618Y-103983180D02*
X127952380Y-104030799D01*
X127952380Y-104030799D02*
X127904761Y-104078418D01*
X127904761Y-104078418D02*
X127857142Y-104173656D01*
X127857142Y-104173656D02*
X127857142Y-104459370D01*
X127857142Y-104459370D02*
X127904761Y-104554608D01*
X127904761Y-104554608D02*
X127952380Y-104602228D01*
X127952380Y-104602228D02*
X128047618Y-104649847D01*
X128047618Y-104649847D02*
X128238094Y-104649847D01*
X128238094Y-104649847D02*
X128333332Y-104602228D01*
X127523808Y-103983180D02*
X127285713Y-104649847D01*
X127047618Y-103983180D02*
X127285713Y-104649847D01*
X127285713Y-104649847D02*
X127380951Y-104887942D01*
X127380951Y-104887942D02*
X127428570Y-104935561D01*
X127428570Y-104935561D02*
X127523808Y-104983180D01*
X126666665Y-104554608D02*
X126619046Y-104602228D01*
X126619046Y-104602228D02*
X126666665Y-104649847D01*
X126666665Y-104649847D02*
X126714284Y-104602228D01*
X126714284Y-104602228D02*
X126666665Y-104554608D01*
X126666665Y-104554608D02*
X126666665Y-104649847D01*
X126666665Y-104030799D02*
X126619046Y-104078418D01*
X126619046Y-104078418D02*
X126666665Y-104126037D01*
X126666665Y-104126037D02*
X126714284Y-104078418D01*
X126714284Y-104078418D02*
X126666665Y-104030799D01*
X126666665Y-104030799D02*
X126666665Y-104126037D01*
X136952381Y-106259791D02*
X136952381Y-105259791D01*
X136523810Y-106259791D02*
X136523810Y-105735981D01*
X136523810Y-105735981D02*
X136571429Y-105640743D01*
X136571429Y-105640743D02*
X136666667Y-105593124D01*
X136666667Y-105593124D02*
X136809524Y-105593124D01*
X136809524Y-105593124D02*
X136904762Y-105640743D01*
X136904762Y-105640743D02*
X136952381Y-105688362D01*
X136190476Y-105593124D02*
X135809524Y-105593124D01*
X136047619Y-105259791D02*
X136047619Y-106116933D01*
X136047619Y-106116933D02*
X136000000Y-106212172D01*
X136000000Y-106212172D02*
X135904762Y-106259791D01*
X135904762Y-106259791D02*
X135809524Y-106259791D01*
X135619047Y-105593124D02*
X135238095Y-105593124D01*
X135476190Y-105259791D02*
X135476190Y-106116933D01*
X135476190Y-106116933D02*
X135428571Y-106212172D01*
X135428571Y-106212172D02*
X135333333Y-106259791D01*
X135333333Y-106259791D02*
X135238095Y-106259791D01*
X134904761Y-105593124D02*
X134904761Y-106593124D01*
X134904761Y-105640743D02*
X134809523Y-105593124D01*
X134809523Y-105593124D02*
X134619047Y-105593124D01*
X134619047Y-105593124D02*
X134523809Y-105640743D01*
X134523809Y-105640743D02*
X134476190Y-105688362D01*
X134476190Y-105688362D02*
X134428571Y-105783600D01*
X134428571Y-105783600D02*
X134428571Y-106069314D01*
X134428571Y-106069314D02*
X134476190Y-106164552D01*
X134476190Y-106164552D02*
X134523809Y-106212172D01*
X134523809Y-106212172D02*
X134619047Y-106259791D01*
X134619047Y-106259791D02*
X134809523Y-106259791D01*
X134809523Y-106259791D02*
X134904761Y-106212172D01*
X134047618Y-106212172D02*
X133952380Y-106259791D01*
X133952380Y-106259791D02*
X133761904Y-106259791D01*
X133761904Y-106259791D02*
X133666666Y-106212172D01*
X133666666Y-106212172D02*
X133619047Y-106116933D01*
X133619047Y-106116933D02*
X133619047Y-106069314D01*
X133619047Y-106069314D02*
X133666666Y-105974076D01*
X133666666Y-105974076D02*
X133761904Y-105926457D01*
X133761904Y-105926457D02*
X133904761Y-105926457D01*
X133904761Y-105926457D02*
X133999999Y-105878838D01*
X133999999Y-105878838D02*
X134047618Y-105783600D01*
X134047618Y-105783600D02*
X134047618Y-105735981D01*
X134047618Y-105735981D02*
X133999999Y-105640743D01*
X133999999Y-105640743D02*
X133904761Y-105593124D01*
X133904761Y-105593124D02*
X133761904Y-105593124D01*
X133761904Y-105593124D02*
X133666666Y-105640743D01*
X133190475Y-106164552D02*
X133142856Y-106212172D01*
X133142856Y-106212172D02*
X133190475Y-106259791D01*
X133190475Y-106259791D02*
X133238094Y-106212172D01*
X133238094Y-106212172D02*
X133190475Y-106164552D01*
X133190475Y-106164552D02*
X133190475Y-106259791D01*
X133190475Y-105640743D02*
X133142856Y-105688362D01*
X133142856Y-105688362D02*
X133190475Y-105735981D01*
X133190475Y-105735981D02*
X133238094Y-105688362D01*
X133238094Y-105688362D02*
X133190475Y-105640743D01*
X133190475Y-105640743D02*
X133190475Y-105735981D01*
X132000000Y-105212172D02*
X132857142Y-106497886D01*
X130952381Y-105212172D02*
X131809523Y-106497886D01*
X130666666Y-106212172D02*
X130571428Y-106259791D01*
X130571428Y-106259791D02*
X130380952Y-106259791D01*
X130380952Y-106259791D02*
X130285714Y-106212172D01*
X130285714Y-106212172D02*
X130238095Y-106116933D01*
X130238095Y-106116933D02*
X130238095Y-106069314D01*
X130238095Y-106069314D02*
X130285714Y-105974076D01*
X130285714Y-105974076D02*
X130380952Y-105926457D01*
X130380952Y-105926457D02*
X130523809Y-105926457D01*
X130523809Y-105926457D02*
X130619047Y-105878838D01*
X130619047Y-105878838D02*
X130666666Y-105783600D01*
X130666666Y-105783600D02*
X130666666Y-105735981D01*
X130666666Y-105735981D02*
X130619047Y-105640743D01*
X130619047Y-105640743D02*
X130523809Y-105593124D01*
X130523809Y-105593124D02*
X130380952Y-105593124D01*
X130380952Y-105593124D02*
X130285714Y-105640743D01*
X129809523Y-106259791D02*
X129809523Y-105259791D01*
X129380952Y-106259791D02*
X129380952Y-105735981D01*
X129380952Y-105735981D02*
X129428571Y-105640743D01*
X129428571Y-105640743D02*
X129523809Y-105593124D01*
X129523809Y-105593124D02*
X129666666Y-105593124D01*
X129666666Y-105593124D02*
X129761904Y-105640743D01*
X129761904Y-105640743D02*
X129809523Y-105688362D01*
X128476190Y-106259791D02*
X128476190Y-105735981D01*
X128476190Y-105735981D02*
X128523809Y-105640743D01*
X128523809Y-105640743D02*
X128619047Y-105593124D01*
X128619047Y-105593124D02*
X128809523Y-105593124D01*
X128809523Y-105593124D02*
X128904761Y-105640743D01*
X128476190Y-106212172D02*
X128571428Y-106259791D01*
X128571428Y-106259791D02*
X128809523Y-106259791D01*
X128809523Y-106259791D02*
X128904761Y-106212172D01*
X128904761Y-106212172D02*
X128952380Y-106116933D01*
X128952380Y-106116933D02*
X128952380Y-106021695D01*
X128952380Y-106021695D02*
X128904761Y-105926457D01*
X128904761Y-105926457D02*
X128809523Y-105878838D01*
X128809523Y-105878838D02*
X128571428Y-105878838D01*
X128571428Y-105878838D02*
X128476190Y-105831219D01*
X128047618Y-106212172D02*
X127952380Y-106259791D01*
X127952380Y-106259791D02*
X127761904Y-106259791D01*
X127761904Y-106259791D02*
X127666666Y-106212172D01*
X127666666Y-106212172D02*
X127619047Y-106116933D01*
X127619047Y-106116933D02*
X127619047Y-106069314D01*
X127619047Y-106069314D02*
X127666666Y-105974076D01*
X127666666Y-105974076D02*
X127761904Y-105926457D01*
X127761904Y-105926457D02*
X127904761Y-105926457D01*
X127904761Y-105926457D02*
X127999999Y-105878838D01*
X127999999Y-105878838D02*
X128047618Y-105783600D01*
X128047618Y-105783600D02*
X128047618Y-105735981D01*
X128047618Y-105735981D02*
X127999999Y-105640743D01*
X127999999Y-105640743D02*
X127904761Y-105593124D01*
X127904761Y-105593124D02*
X127761904Y-105593124D01*
X127761904Y-105593124D02*
X127666666Y-105640743D01*
X127190475Y-106259791D02*
X127190475Y-105259791D01*
X126761904Y-106259791D02*
X126761904Y-105735981D01*
X126761904Y-105735981D02*
X126809523Y-105640743D01*
X126809523Y-105640743D02*
X126904761Y-105593124D01*
X126904761Y-105593124D02*
X127047618Y-105593124D01*
X127047618Y-105593124D02*
X127142856Y-105640743D01*
X127142856Y-105640743D02*
X127190475Y-105688362D01*
X126380951Y-105593124D02*
X126190475Y-106259791D01*
X126190475Y-106259791D02*
X125999999Y-105783600D01*
X125999999Y-105783600D02*
X125809523Y-106259791D01*
X125809523Y-106259791D02*
X125619047Y-105593124D01*
X124809523Y-106259791D02*
X124809523Y-105735981D01*
X124809523Y-105735981D02*
X124857142Y-105640743D01*
X124857142Y-105640743D02*
X124952380Y-105593124D01*
X124952380Y-105593124D02*
X125142856Y-105593124D01*
X125142856Y-105593124D02*
X125238094Y-105640743D01*
X124809523Y-106212172D02*
X124904761Y-106259791D01*
X124904761Y-106259791D02*
X125142856Y-106259791D01*
X125142856Y-106259791D02*
X125238094Y-106212172D01*
X125238094Y-106212172D02*
X125285713Y-106116933D01*
X125285713Y-106116933D02*
X125285713Y-106021695D01*
X125285713Y-106021695D02*
X125238094Y-105926457D01*
X125238094Y-105926457D02*
X125142856Y-105878838D01*
X125142856Y-105878838D02*
X124904761Y-105878838D01*
X124904761Y-105878838D02*
X124809523Y-105831219D01*
X124476189Y-105593124D02*
X124095237Y-105593124D01*
X124333332Y-105259791D02*
X124333332Y-106116933D01*
X124333332Y-106116933D02*
X124285713Y-106212172D01*
X124285713Y-106212172D02*
X124190475Y-106259791D01*
X124190475Y-106259791D02*
X124095237Y-106259791D01*
X123761903Y-106164552D02*
X123714284Y-106212172D01*
X123714284Y-106212172D02*
X123761903Y-106259791D01*
X123761903Y-106259791D02*
X123809522Y-106212172D01*
X123809522Y-106212172D02*
X123761903Y-106164552D01*
X123761903Y-106164552D02*
X123761903Y-106259791D01*
X122857142Y-106212172D02*
X122952380Y-106259791D01*
X122952380Y-106259791D02*
X123142856Y-106259791D01*
X123142856Y-106259791D02*
X123238094Y-106212172D01*
X123238094Y-106212172D02*
X123285713Y-106164552D01*
X123285713Y-106164552D02*
X123333332Y-106069314D01*
X123333332Y-106069314D02*
X123333332Y-105783600D01*
X123333332Y-105783600D02*
X123285713Y-105688362D01*
X123285713Y-105688362D02*
X123238094Y-105640743D01*
X123238094Y-105640743D02*
X123142856Y-105593124D01*
X123142856Y-105593124D02*
X122952380Y-105593124D01*
X122952380Y-105593124D02*
X122857142Y-105640743D01*
X121999999Y-106212172D02*
X122095237Y-106259791D01*
X122095237Y-106259791D02*
X122285713Y-106259791D01*
X122285713Y-106259791D02*
X122380951Y-106212172D01*
X122380951Y-106212172D02*
X122428570Y-106164552D01*
X122428570Y-106164552D02*
X122476189Y-106069314D01*
X122476189Y-106069314D02*
X122476189Y-105783600D01*
X122476189Y-105783600D02*
X122428570Y-105688362D01*
X122428570Y-105688362D02*
X122380951Y-105640743D01*
X122380951Y-105640743D02*
X122285713Y-105593124D01*
X122285713Y-105593124D02*
X122095237Y-105593124D01*
X122095237Y-105593124D02*
X121999999Y-105640743D01*
G36*
X127588117Y-73440153D02*
G01*
X127644278Y-73459719D01*
X127695942Y-73492558D01*
X127744036Y-73540323D01*
X127791608Y-73609477D01*
X127826288Y-73688482D01*
X127847954Y-73779129D01*
X127855557Y-73883680D01*
X127855557Y-74159772D01*
X127850491Y-74248344D01*
X127836726Y-74318334D01*
X127819906Y-74367012D01*
X127791663Y-74427584D01*
X127759460Y-74484002D01*
X127736709Y-74514632D01*
X127695690Y-74552509D01*
X127645264Y-74581604D01*
X127588679Y-74599652D01*
X127525170Y-74605857D01*
X127441699Y-74599636D01*
X127374114Y-74582422D01*
X127319420Y-74555665D01*
X127279960Y-74522432D01*
X127270254Y-74498073D01*
X127272676Y-74485803D01*
X127280072Y-74475065D01*
X127290929Y-74467649D01*
X127303886Y-74465173D01*
X127316539Y-74468104D01*
X127330924Y-74478143D01*
X127375411Y-74508428D01*
X127435307Y-74528184D01*
X127515351Y-74535515D01*
X127574723Y-74528654D01*
X127626441Y-74508725D01*
X127672317Y-74475436D01*
X127713335Y-74426852D01*
X127744565Y-74371249D01*
X127767434Y-74308860D01*
X127781701Y-74238585D01*
X127786681Y-74159113D01*
X127786681Y-73887637D01*
X127779002Y-73785166D01*
X127758397Y-73707678D01*
X127726561Y-73638863D01*
X127690767Y-73583408D01*
X127665063Y-73556398D01*
X127632588Y-73533362D01*
X127579148Y-73511175D01*
X127522752Y-73503833D01*
X127469352Y-73510329D01*
X127423499Y-73529143D01*
X127383387Y-73560620D01*
X127352761Y-73601407D01*
X127334141Y-73649369D01*
X127327626Y-73706579D01*
X127327626Y-73785201D01*
X127397153Y-73790331D01*
X127455687Y-73804770D01*
X127505120Y-73827598D01*
X127546932Y-73858621D01*
X127591909Y-73911642D01*
X127618001Y-73969381D01*
X127626799Y-74033889D01*
X127619581Y-74090900D01*
X127598403Y-74141156D01*
X127562466Y-74186443D01*
X127516224Y-74221064D01*
X127461946Y-74242102D01*
X127397309Y-74249458D01*
X127365289Y-74247773D01*
X127327626Y-74242790D01*
X127327626Y-74254147D01*
X127271866Y-74254147D01*
X127244462Y-74250411D01*
X127231346Y-74237808D01*
X127225997Y-74218170D01*
X127228128Y-74204939D01*
X127234203Y-74194723D01*
X127243938Y-74187590D01*
X127258750Y-74183806D01*
X127258750Y-74171715D01*
X127327626Y-74171715D01*
X127359207Y-74177064D01*
X127388296Y-74179116D01*
X127440253Y-74173950D01*
X127481100Y-74159675D01*
X127513300Y-74137131D01*
X127538186Y-74106763D01*
X127552933Y-74072360D01*
X127557996Y-74032570D01*
X127551497Y-73989098D01*
X127531805Y-73948678D01*
X127496960Y-73909912D01*
X127453267Y-73881150D01*
X127397887Y-73862628D01*
X127327626Y-73855543D01*
X127327626Y-74171715D01*
X127258750Y-74171715D01*
X127258750Y-73709437D01*
X127263751Y-73653059D01*
X127278286Y-73602514D01*
X127302201Y-73556663D01*
X127350361Y-73498477D01*
X127402218Y-73461921D01*
X127460990Y-73440703D01*
X127525976Y-73433491D01*
X127588117Y-73440153D01*
G37*
G36*
X126747672Y-73466318D02*
G01*
X126747672Y-73892766D01*
X126680322Y-73828805D01*
X126621862Y-73791210D01*
X126558865Y-73769311D01*
X126486967Y-73761754D01*
X126410579Y-73769273D01*
X126350533Y-73790037D01*
X126299568Y-73825368D01*
X126256670Y-73877012D01*
X126235453Y-73917388D01*
X126223051Y-73958290D01*
X126218935Y-74000404D01*
X126218935Y-74427658D01*
X126141852Y-74427658D01*
X126118833Y-74430479D01*
X126106241Y-74437330D01*
X126098631Y-74448298D01*
X126095983Y-74462829D01*
X126098581Y-74476741D01*
X126106241Y-74487961D01*
X126118874Y-74495084D01*
X126141852Y-74498000D01*
X126365627Y-74498000D01*
X126388688Y-74495104D01*
X126401751Y-74487961D01*
X126409697Y-74476711D01*
X126412375Y-74462829D01*
X126409646Y-74448329D01*
X126401751Y-74437330D01*
X126388728Y-74430459D01*
X126365627Y-74427658D01*
X126288617Y-74427658D01*
X126288617Y-74006339D01*
X126294693Y-73959039D01*
X126312400Y-73918130D01*
X126342326Y-73881995D01*
X126380963Y-73855195D01*
X126429848Y-73838230D01*
X126491876Y-73832096D01*
X126541035Y-73836440D01*
X126583531Y-73848874D01*
X126620617Y-73869025D01*
X126663784Y-73905523D01*
X126747672Y-73992856D01*
X126747672Y-74427658D01*
X126669783Y-74427658D01*
X126647405Y-74430438D01*
X126634538Y-74437330D01*
X126626586Y-74448336D01*
X126623841Y-74462829D01*
X126626535Y-74476705D01*
X126634538Y-74487961D01*
X126647444Y-74495126D01*
X126669783Y-74498000D01*
X126894364Y-74498000D01*
X126916715Y-74495129D01*
X126929682Y-74487961D01*
X126937628Y-74476711D01*
X126940306Y-74462829D01*
X126937577Y-74448329D01*
X126929682Y-74437330D01*
X126916754Y-74430435D01*
X126894364Y-74427658D01*
X126816475Y-74427658D01*
X126816475Y-73536660D01*
X126909165Y-73536660D01*
X126931475Y-73533847D01*
X126944409Y-73526841D01*
X126952328Y-73515711D01*
X126955034Y-73501489D01*
X126952356Y-73487606D01*
X126944409Y-73476356D01*
X126931451Y-73469186D01*
X126909165Y-73466318D01*
X126747672Y-73466318D01*
G37*
G36*
X125595125Y-73768990D02*
G01*
X125715990Y-73796705D01*
X125788216Y-73819399D01*
X125808607Y-73830923D01*
X125814654Y-73840398D01*
X125816813Y-73853418D01*
X125814418Y-73867274D01*
X125807434Y-73878404D01*
X125796999Y-73885908D01*
X125784866Y-73888369D01*
X125751234Y-73879943D01*
X125612992Y-73842136D01*
X125525774Y-73832096D01*
X125456822Y-73837535D01*
X125405741Y-73852034D01*
X125368384Y-73873788D01*
X125338356Y-73904407D01*
X125321488Y-73936703D01*
X125315920Y-73971900D01*
X125315920Y-74083129D01*
X125436454Y-74063491D01*
X125539695Y-74057190D01*
X125629170Y-74062728D01*
X125701810Y-74077998D01*
X125760545Y-74101476D01*
X125807801Y-74132368D01*
X125849502Y-74173351D01*
X125877646Y-74215780D01*
X125894098Y-74260341D01*
X125899612Y-74308150D01*
X125891837Y-74366206D01*
X125868981Y-74417168D01*
X125829929Y-74462975D01*
X125779935Y-74496861D01*
X125716691Y-74518358D01*
X125636489Y-74526136D01*
X125554115Y-74518461D01*
X125474015Y-74495357D01*
X125394944Y-74455939D01*
X125315920Y-74398348D01*
X125315920Y-74498000D01*
X125154500Y-74498000D01*
X125131451Y-74495102D01*
X125118450Y-74487961D01*
X125110446Y-74476705D01*
X125107752Y-74462829D01*
X125110498Y-74448336D01*
X125118450Y-74437330D01*
X125131411Y-74430462D01*
X125154500Y-74427658D01*
X125246311Y-74427658D01*
X125246311Y-74154643D01*
X125315920Y-74154643D01*
X125315920Y-74306464D01*
X125398916Y-74375964D01*
X125473750Y-74420110D01*
X125553006Y-74446753D01*
X125639713Y-74455794D01*
X125700681Y-74450377D01*
X125747004Y-74435703D01*
X125782009Y-74413150D01*
X125809370Y-74382045D01*
X125825320Y-74347469D01*
X125830735Y-74308076D01*
X125823953Y-74266268D01*
X125803417Y-74228204D01*
X125766768Y-74192378D01*
X125707110Y-74157971D01*
X125630492Y-74135685D01*
X125532368Y-74127532D01*
X125418429Y-74134127D01*
X125315920Y-74154643D01*
X125246311Y-74154643D01*
X125246311Y-73971681D01*
X125254022Y-73920680D01*
X125277510Y-73872721D01*
X125319291Y-73826161D01*
X125371483Y-73791704D01*
X125437912Y-73769731D01*
X125522550Y-73761754D01*
X125595125Y-73768990D01*
G37*
G36*
X124219538Y-73856422D02*
G01*
X124219538Y-73832975D01*
X124216688Y-73809349D01*
X124209720Y-73796119D01*
X124198619Y-73787930D01*
X124185100Y-73785201D01*
X124170878Y-73787907D01*
X124159748Y-73795826D01*
X124152714Y-73808802D01*
X124149856Y-73831803D01*
X124149856Y-73987141D01*
X124153235Y-74010188D01*
X124160114Y-74023118D01*
X124170943Y-74031025D01*
X124185100Y-74033743D01*
X124197977Y-74031387D01*
X124208474Y-74024437D01*
X124215587Y-74013029D01*
X124219538Y-73993296D01*
X124229016Y-73958157D01*
X124253073Y-73922149D01*
X124296182Y-73883973D01*
X124346551Y-73856335D01*
X124409823Y-73838551D01*
X124489256Y-73832096D01*
X124564863Y-73838756D01*
X124627274Y-73857446D01*
X124679064Y-73887155D01*
X124722044Y-73928157D01*
X124766401Y-73995628D01*
X124792651Y-74068287D01*
X124801545Y-74148048D01*
X124795783Y-74213557D01*
X124779162Y-74271279D01*
X124752025Y-74322681D01*
X124713837Y-74368819D01*
X124667440Y-74406425D01*
X124614985Y-74433366D01*
X124555295Y-74449995D01*
X124486765Y-74455794D01*
X124406683Y-74448599D01*
X124323293Y-74426339D01*
X124270003Y-74402931D01*
X124219969Y-74371487D01*
X124172790Y-74331450D01*
X124155388Y-74318567D01*
X124142455Y-74315110D01*
X124129608Y-74317517D01*
X124119155Y-74324636D01*
X124112094Y-74335154D01*
X124109702Y-74348083D01*
X124115889Y-74368883D01*
X124139581Y-74397513D01*
X124192501Y-74437916D01*
X124261241Y-74476537D01*
X124333234Y-74503949D01*
X124409213Y-74520515D01*
X124490062Y-74526136D01*
X124571697Y-74519094D01*
X124643325Y-74498828D01*
X124706792Y-74465845D01*
X124763443Y-74419598D01*
X124810009Y-74363108D01*
X124843112Y-74300171D01*
X124863391Y-74229496D01*
X124870421Y-74149294D01*
X124863257Y-74067510D01*
X124842553Y-73995140D01*
X124808702Y-73930407D01*
X124761025Y-73872030D01*
X124702942Y-73823925D01*
X124638542Y-73789813D01*
X124566542Y-73768966D01*
X124485153Y-73761754D01*
X124407255Y-73767996D01*
X124337961Y-73786028D01*
X124275770Y-73815391D01*
X124219538Y-73856422D01*
G37*
G36*
X123639584Y-74191426D02*
G01*
X123639584Y-74498000D01*
X123801077Y-74498000D01*
X123823363Y-74495131D01*
X123836321Y-74487961D01*
X123844268Y-74476711D01*
X123846946Y-74462829D01*
X123844217Y-74448329D01*
X123836321Y-74437330D01*
X123823402Y-74430433D01*
X123801077Y-74427658D01*
X123708387Y-74427658D01*
X123708387Y-73536660D01*
X123801077Y-73536660D01*
X123823387Y-73533847D01*
X123836321Y-73526841D01*
X123844240Y-73515711D01*
X123846946Y-73501489D01*
X123844268Y-73487606D01*
X123836321Y-73476356D01*
X123823363Y-73469186D01*
X123801077Y-73466318D01*
X123639584Y-73466318D01*
X123639584Y-74101154D01*
X123346932Y-73855543D01*
X123382176Y-73855543D01*
X123404462Y-73852675D01*
X123417421Y-73845505D01*
X123425367Y-73834255D01*
X123428045Y-73820372D01*
X123425339Y-73806150D01*
X123417421Y-73795020D01*
X123404486Y-73788014D01*
X123382176Y-73785201D01*
X123161625Y-73785201D01*
X123138616Y-73788041D01*
X123125648Y-73795020D01*
X123117672Y-73806156D01*
X123114950Y-73820372D01*
X123117644Y-73834249D01*
X123125648Y-73845505D01*
X123138640Y-73852647D01*
X123161625Y-73855543D01*
X123241199Y-73855543D01*
X123510037Y-74081443D01*
X123169832Y-74427658D01*
X123090330Y-74427658D01*
X123067241Y-74430462D01*
X123054280Y-74437330D01*
X123046328Y-74448336D01*
X123043582Y-74462829D01*
X123046277Y-74476705D01*
X123054280Y-74487961D01*
X123067281Y-74495102D01*
X123090330Y-74498000D01*
X123313300Y-74498000D01*
X123335650Y-74495129D01*
X123348617Y-74487961D01*
X123356564Y-74476711D01*
X123359242Y-74462829D01*
X123356512Y-74448329D01*
X123348617Y-74437330D01*
X123335689Y-74430435D01*
X123313300Y-74427658D01*
X123264940Y-74427658D01*
X123560889Y-74125041D01*
X123639584Y-74191426D01*
G37*
G36*
X122205414Y-73856422D02*
G01*
X122205414Y-73832975D01*
X122202564Y-73809349D01*
X122195596Y-73796119D01*
X122184494Y-73787930D01*
X122170976Y-73785201D01*
X122156754Y-73787907D01*
X122145624Y-73795826D01*
X122138590Y-73808802D01*
X122135732Y-73831803D01*
X122135732Y-73987141D01*
X122139111Y-74010188D01*
X122145990Y-74023118D01*
X122156818Y-74031025D01*
X122170976Y-74033743D01*
X122183853Y-74031387D01*
X122194350Y-74024437D01*
X122201462Y-74013029D01*
X122205414Y-73993296D01*
X122214892Y-73958157D01*
X122238949Y-73922149D01*
X122282058Y-73883973D01*
X122332426Y-73856335D01*
X122395699Y-73838551D01*
X122475132Y-73832096D01*
X122550739Y-73838756D01*
X122613150Y-73857446D01*
X122664940Y-73887155D01*
X122707919Y-73928157D01*
X122752277Y-73995628D01*
X122778527Y-74068287D01*
X122787421Y-74148048D01*
X122781659Y-74213557D01*
X122765038Y-74271279D01*
X122737901Y-74322681D01*
X122699713Y-74368819D01*
X122653316Y-74406425D01*
X122600861Y-74433366D01*
X122541170Y-74449995D01*
X122472640Y-74455794D01*
X122392559Y-74448599D01*
X122309169Y-74426339D01*
X122255879Y-74402931D01*
X122205845Y-74371487D01*
X122158666Y-74331450D01*
X122141264Y-74318567D01*
X122128331Y-74315110D01*
X122115484Y-74317517D01*
X122105030Y-74324636D01*
X122097969Y-74335154D01*
X122095578Y-74348083D01*
X122101765Y-74368883D01*
X122125457Y-74397513D01*
X122178377Y-74437916D01*
X122247117Y-74476537D01*
X122319110Y-74503949D01*
X122395089Y-74520515D01*
X122475938Y-74526136D01*
X122557573Y-74519094D01*
X122629200Y-74498828D01*
X122692668Y-74465845D01*
X122749319Y-74419598D01*
X122795885Y-74363108D01*
X122828987Y-74300171D01*
X122849267Y-74229496D01*
X122856297Y-74149294D01*
X122849132Y-74067510D01*
X122828429Y-73995140D01*
X122794578Y-73930407D01*
X122746901Y-73872030D01*
X122688818Y-73823925D01*
X122624418Y-73789813D01*
X122552418Y-73768966D01*
X122471028Y-73761754D01*
X122393130Y-73767996D01*
X122323837Y-73786028D01*
X122261646Y-73815391D01*
X122205414Y-73856422D01*
G37*
G36*
X121450850Y-73466318D02*
G01*
X121450850Y-74427658D01*
X121180327Y-74427658D01*
X121157238Y-74430462D01*
X121144277Y-74437330D01*
X121136325Y-74448336D01*
X121133579Y-74462829D01*
X121136273Y-74476705D01*
X121144277Y-74487961D01*
X121157278Y-74495102D01*
X121180327Y-74498000D01*
X121790177Y-74498000D01*
X121812527Y-74495129D01*
X121825494Y-74487961D01*
X121833441Y-74476711D01*
X121836119Y-74462829D01*
X121833390Y-74448329D01*
X121825494Y-74437330D01*
X121812567Y-74430435D01*
X121790177Y-74427658D01*
X121519727Y-74427658D01*
X121519727Y-73536660D01*
X121718076Y-73536660D01*
X121740501Y-73533840D01*
X121753760Y-73526768D01*
X121762018Y-73515450D01*
X121764825Y-73501049D01*
X121762152Y-73487381D01*
X121754200Y-73476283D01*
X121741146Y-73469194D01*
X121718076Y-73466318D01*
X121450850Y-73466318D01*
G37*
G36*
X120242947Y-74498000D02*
G01*
X120242947Y-74396517D01*
X120317702Y-74455086D01*
X120392727Y-74495014D01*
X120469022Y-74518373D01*
X120547909Y-74526136D01*
X120612871Y-74519304D01*
X120662771Y-74500547D01*
X120701123Y-74470962D01*
X120739262Y-74419381D01*
X120761632Y-74363648D01*
X120769193Y-74302068D01*
X120769193Y-73855543D01*
X120861810Y-73855543D01*
X120884184Y-73852728D01*
X120897127Y-73845725D01*
X120905046Y-73834595D01*
X120907752Y-73820372D01*
X120905074Y-73806489D01*
X120897127Y-73795240D01*
X120884160Y-73788072D01*
X120861810Y-73785201D01*
X120700317Y-73785201D01*
X120700317Y-74301115D01*
X120695365Y-74344366D01*
X120681170Y-74380887D01*
X120657745Y-74412197D01*
X120627022Y-74436373D01*
X120591944Y-74450812D01*
X120551133Y-74455794D01*
X120487052Y-74449984D01*
X120425031Y-74432541D01*
X120364129Y-74402885D01*
X120303603Y-74359724D01*
X120242947Y-74301115D01*
X120242947Y-73855543D01*
X120370003Y-73855543D01*
X120392312Y-73852730D01*
X120405247Y-73845725D01*
X120413166Y-73834595D01*
X120415871Y-73820372D01*
X120413193Y-73806489D01*
X120405247Y-73795240D01*
X120392288Y-73788070D01*
X120370003Y-73785201D01*
X120174071Y-73785201D01*
X120174071Y-74427658D01*
X120115892Y-74427658D01*
X120093514Y-74430438D01*
X120080648Y-74437330D01*
X120072696Y-74448336D01*
X120069950Y-74462829D01*
X120072644Y-74476705D01*
X120080648Y-74487961D01*
X120093554Y-74495126D01*
X120115892Y-74498000D01*
X120242947Y-74498000D01*
G37*
G36*
X119914834Y-73469189D02*
G01*
X119927801Y-73476356D01*
X119935747Y-73487606D01*
X119938425Y-73501489D01*
X119935720Y-73515711D01*
X119927801Y-73526841D01*
X119914857Y-73533845D01*
X119892483Y-73536660D01*
X119799866Y-73536660D01*
X119799866Y-74427658D01*
X119892483Y-74427658D01*
X119914873Y-74430435D01*
X119927801Y-74437330D01*
X119935696Y-74448329D01*
X119938425Y-74462829D01*
X119935747Y-74476711D01*
X119927801Y-74487961D01*
X119914834Y-74495129D01*
X119892483Y-74498000D01*
X119730990Y-74498000D01*
X119730990Y-74362225D01*
X119678103Y-74423498D01*
X119622274Y-74468987D01*
X119563016Y-74500677D01*
X119499401Y-74519675D01*
X119430132Y-74526136D01*
X119358433Y-74519137D01*
X119292589Y-74498526D01*
X119231184Y-74464025D01*
X119173237Y-74414249D01*
X119125579Y-74355039D01*
X119091973Y-74290602D01*
X119071580Y-74219806D01*
X119064821Y-74143872D01*
X119133377Y-74143872D01*
X119139123Y-74207488D01*
X119155865Y-74264771D01*
X119183499Y-74316998D01*
X119222769Y-74365083D01*
X119270383Y-74405505D01*
X119320521Y-74433475D01*
X119373962Y-74450147D01*
X119431817Y-74455794D01*
X119489637Y-74450153D01*
X119543068Y-74433496D01*
X119593219Y-74405549D01*
X119640864Y-74365156D01*
X119680100Y-74317076D01*
X119707711Y-74264850D01*
X119724442Y-74207565D01*
X119730184Y-74143945D01*
X119724440Y-74080325D01*
X119707709Y-74023053D01*
X119680097Y-73970852D01*
X119640864Y-73922808D01*
X119593214Y-73882379D01*
X119543062Y-73854409D01*
X119489633Y-73837741D01*
X119431817Y-73832096D01*
X119373958Y-73837740D01*
X119320515Y-73854400D01*
X119270378Y-73882348D01*
X119222769Y-73922734D01*
X119183501Y-73970783D01*
X119155868Y-74022985D01*
X119139124Y-74080255D01*
X119133377Y-74143872D01*
X119064821Y-74143872D01*
X119064573Y-74141087D01*
X119071514Y-74063137D01*
X119091695Y-73993215D01*
X119124915Y-73929744D01*
X119171991Y-73871590D01*
X119229177Y-73822982D01*
X119290504Y-73789083D01*
X119356999Y-73768707D01*
X119430132Y-73761754D01*
X119497606Y-73768088D01*
X119560404Y-73786820D01*
X119619722Y-73818248D01*
X119676426Y-73863580D01*
X119730990Y-73924859D01*
X119730990Y-73466318D01*
X119892483Y-73466318D01*
X119914834Y-73469189D01*
G37*
G36*
X172595271Y-73768942D02*
G01*
X172665868Y-73789919D01*
X172730432Y-73824624D01*
X172790083Y-73874081D01*
X172839642Y-73933758D01*
X172874311Y-73997912D01*
X172895199Y-74067615D01*
X172902337Y-74144385D01*
X172895214Y-74220688D01*
X172874352Y-74290102D01*
X172839687Y-74354122D01*
X172790083Y-74413809D01*
X172730432Y-74463266D01*
X172665868Y-74497971D01*
X172595271Y-74518948D01*
X172517068Y-74526136D01*
X172439738Y-74519005D01*
X172369621Y-74498155D01*
X172305194Y-74463591D01*
X172245373Y-74414249D01*
X172195580Y-74354755D01*
X172160757Y-74290742D01*
X172139777Y-74221129D01*
X172132606Y-74144385D01*
X172132647Y-74143945D01*
X172202288Y-74143945D01*
X172208147Y-74206504D01*
X172225299Y-74263310D01*
X172253784Y-74315609D01*
X172294539Y-74364277D01*
X172343457Y-74404580D01*
X172396322Y-74432858D01*
X172454037Y-74449943D01*
X172517874Y-74455794D01*
X172581691Y-74449924D01*
X172639411Y-74432780D01*
X172692307Y-74404392D01*
X172741283Y-74363910D01*
X172782058Y-74315023D01*
X172810517Y-74262699D01*
X172827625Y-74206078D01*
X172833460Y-74143945D01*
X172827605Y-74081382D01*
X172810466Y-74024574D01*
X172782003Y-73972277D01*
X172741283Y-73923614D01*
X172692329Y-73883308D01*
X172639439Y-73855030D01*
X172581711Y-73837946D01*
X172517874Y-73832096D01*
X172454013Y-73837924D01*
X172396287Y-73854936D01*
X172343430Y-73883082D01*
X172294539Y-73923174D01*
X172253842Y-73971618D01*
X172225353Y-74023900D01*
X172208169Y-74080917D01*
X172202288Y-74143945D01*
X172132647Y-74143945D01*
X172139792Y-74067174D01*
X172160797Y-73997271D01*
X172195624Y-73933125D01*
X172245373Y-73873642D01*
X172305194Y-73824300D01*
X172369621Y-73789735D01*
X172439738Y-73768885D01*
X172517068Y-73761754D01*
X172595271Y-73768942D01*
G37*
G36*
X171282934Y-73832096D02*
G01*
X171280130Y-73809599D01*
X171273115Y-73796339D01*
X171261996Y-73787977D01*
X171248495Y-73785201D01*
X171234279Y-73787923D01*
X171223143Y-73795899D01*
X171216114Y-73808893D01*
X171213251Y-73832023D01*
X171213251Y-73950212D01*
X171216068Y-73972650D01*
X171223070Y-73985602D01*
X171234210Y-73993518D01*
X171248495Y-73996227D01*
X171261401Y-73993953D01*
X171271869Y-73987288D01*
X171278969Y-73976379D01*
X171282860Y-73958052D01*
X171290537Y-73927862D01*
X171307047Y-73901341D01*
X171333712Y-73877598D01*
X171380626Y-73853345D01*
X171439005Y-73837744D01*
X171511618Y-73832096D01*
X171587449Y-73838065D01*
X171646070Y-73854276D01*
X171691137Y-73879064D01*
X171719389Y-73905248D01*
X171734631Y-73931252D01*
X171739497Y-73958125D01*
X171733655Y-73988011D01*
X171715614Y-74015084D01*
X171682124Y-74040557D01*
X171633483Y-74058843D01*
X171532941Y-74075948D01*
X171400671Y-74094542D01*
X171333712Y-74111265D01*
X171283009Y-74134147D01*
X171244213Y-74160785D01*
X171215303Y-74190986D01*
X171193344Y-74226476D01*
X171180569Y-74262898D01*
X171176322Y-74301042D01*
X171185152Y-74355873D01*
X171212189Y-74407413D01*
X171260805Y-74457553D01*
X171304205Y-74485683D01*
X171358325Y-74507107D01*
X171425448Y-74521067D01*
X171508321Y-74526136D01*
X171589534Y-74520403D01*
X171660066Y-74504063D01*
X171721616Y-74477934D01*
X171775547Y-74442166D01*
X171778844Y-74478289D01*
X171790788Y-74492284D01*
X171809985Y-74498000D01*
X171823589Y-74495359D01*
X171834605Y-74487521D01*
X171841613Y-74474815D01*
X171844423Y-74452863D01*
X171844423Y-74313352D01*
X171841725Y-74291354D01*
X171835045Y-74278694D01*
X171824218Y-74270905D01*
X171809985Y-74268216D01*
X171796333Y-74270742D01*
X171784999Y-74278254D01*
X171777411Y-74289706D01*
X171774741Y-74305072D01*
X171769831Y-74339580D01*
X171755910Y-74366768D01*
X171720700Y-74400571D01*
X171664465Y-74430588D01*
X171597641Y-74448998D01*
X171510812Y-74455794D01*
X171422149Y-74449179D01*
X171357348Y-74431686D01*
X171310777Y-74405749D01*
X171272102Y-74368966D01*
X171251609Y-74334119D01*
X171245198Y-74299723D01*
X171252245Y-74260692D01*
X171273422Y-74227019D01*
X171311583Y-74197068D01*
X171358102Y-74175991D01*
X171421840Y-74158326D01*
X171507149Y-74145411D01*
X171626052Y-74128487D01*
X171691137Y-74110899D01*
X171741404Y-74083682D01*
X171778038Y-74046785D01*
X171801532Y-74002027D01*
X171809179Y-73954828D01*
X171803852Y-73913131D01*
X171788240Y-73876524D01*
X171761734Y-73843661D01*
X171722278Y-73813924D01*
X171662323Y-73785551D01*
X171593794Y-73767923D01*
X171514915Y-73761754D01*
X171422165Y-73770256D01*
X171345946Y-73794107D01*
X171282934Y-73832096D01*
G37*
G36*
X170275871Y-73832096D02*
G01*
X170273068Y-73809599D01*
X170266053Y-73796339D01*
X170254934Y-73787977D01*
X170241433Y-73785201D01*
X170227217Y-73787923D01*
X170216081Y-73795899D01*
X170209052Y-73808893D01*
X170206189Y-73832023D01*
X170206189Y-73950212D01*
X170209006Y-73972650D01*
X170216008Y-73985602D01*
X170227148Y-73993518D01*
X170241433Y-73996227D01*
X170254339Y-73993953D01*
X170264807Y-73987288D01*
X170271907Y-73976379D01*
X170275798Y-73958052D01*
X170283475Y-73927862D01*
X170299985Y-73901341D01*
X170326650Y-73877598D01*
X170373564Y-73853345D01*
X170431943Y-73837744D01*
X170504556Y-73832096D01*
X170580387Y-73838065D01*
X170639008Y-73854276D01*
X170684075Y-73879064D01*
X170712327Y-73905248D01*
X170727568Y-73931252D01*
X170732435Y-73958125D01*
X170726593Y-73988011D01*
X170708552Y-74015084D01*
X170675062Y-74040557D01*
X170626421Y-74058843D01*
X170525878Y-74075948D01*
X170393609Y-74094542D01*
X170326650Y-74111265D01*
X170275947Y-74134147D01*
X170237151Y-74160785D01*
X170208241Y-74190986D01*
X170186282Y-74226476D01*
X170173507Y-74262898D01*
X170169259Y-74301042D01*
X170178090Y-74355873D01*
X170205127Y-74407413D01*
X170253743Y-74457553D01*
X170297143Y-74485683D01*
X170351263Y-74507107D01*
X170418386Y-74521067D01*
X170501259Y-74526136D01*
X170582472Y-74520403D01*
X170653004Y-74504063D01*
X170714554Y-74477934D01*
X170768485Y-74442166D01*
X170771782Y-74478289D01*
X170783726Y-74492284D01*
X170802923Y-74498000D01*
X170816527Y-74495359D01*
X170827543Y-74487521D01*
X170834551Y-74474815D01*
X170837361Y-74452863D01*
X170837361Y-74313352D01*
X170834663Y-74291354D01*
X170827982Y-74278694D01*
X170817156Y-74270905D01*
X170802923Y-74268216D01*
X170789271Y-74270742D01*
X170777937Y-74278254D01*
X170770349Y-74289706D01*
X170767679Y-74305072D01*
X170762768Y-74339580D01*
X170748848Y-74366768D01*
X170713638Y-74400571D01*
X170657403Y-74430588D01*
X170590579Y-74448998D01*
X170503750Y-74455794D01*
X170415087Y-74449179D01*
X170350286Y-74431686D01*
X170303715Y-74405749D01*
X170265039Y-74368966D01*
X170244547Y-74334119D01*
X170238136Y-74299723D01*
X170245183Y-74260692D01*
X170266360Y-74227019D01*
X170304521Y-74197068D01*
X170351039Y-74175991D01*
X170414778Y-74158326D01*
X170500086Y-74145411D01*
X170618990Y-74128487D01*
X170684075Y-74110899D01*
X170734342Y-74083682D01*
X170770976Y-74046785D01*
X170794470Y-74002027D01*
X170802117Y-73954828D01*
X170796790Y-73913131D01*
X170781178Y-73876524D01*
X170754672Y-73843661D01*
X170715216Y-73813924D01*
X170655261Y-73785551D01*
X170586732Y-73767923D01*
X170507853Y-73761754D01*
X170415103Y-73770256D01*
X170338884Y-73794107D01*
X170275871Y-73832096D01*
G37*
G36*
X168715892Y-73466318D02*
G01*
X168715892Y-73892766D01*
X168648543Y-73828805D01*
X168590083Y-73791210D01*
X168527085Y-73769311D01*
X168455188Y-73761754D01*
X168378800Y-73769273D01*
X168318754Y-73790037D01*
X168267788Y-73825368D01*
X168224891Y-73877012D01*
X168203674Y-73917388D01*
X168191272Y-73958290D01*
X168187155Y-74000404D01*
X168187155Y-74427658D01*
X168110072Y-74427658D01*
X168087054Y-74430479D01*
X168074462Y-74437330D01*
X168066852Y-74448298D01*
X168064204Y-74462829D01*
X168066802Y-74476741D01*
X168074462Y-74487961D01*
X168087095Y-74495084D01*
X168110072Y-74498000D01*
X168333848Y-74498000D01*
X168356909Y-74495104D01*
X168369971Y-74487961D01*
X168377917Y-74476711D01*
X168380596Y-74462829D01*
X168377866Y-74448329D01*
X168369971Y-74437330D01*
X168356949Y-74430459D01*
X168333848Y-74427658D01*
X168256838Y-74427658D01*
X168256838Y-74006339D01*
X168262913Y-73959039D01*
X168280621Y-73918130D01*
X168310547Y-73881995D01*
X168349184Y-73855195D01*
X168398068Y-73838230D01*
X168460097Y-73832096D01*
X168509256Y-73836440D01*
X168551751Y-73848874D01*
X168588837Y-73869025D01*
X168632004Y-73905523D01*
X168715892Y-73992856D01*
X168715892Y-74427658D01*
X168638003Y-74427658D01*
X168615625Y-74430438D01*
X168602759Y-74437330D01*
X168594807Y-74448336D01*
X168592061Y-74462829D01*
X168594756Y-74476705D01*
X168602759Y-74487961D01*
X168615665Y-74495126D01*
X168638003Y-74498000D01*
X168862585Y-74498000D01*
X168884935Y-74495129D01*
X168897902Y-74487961D01*
X168905848Y-74476711D01*
X168908527Y-74462829D01*
X168905797Y-74448329D01*
X168897902Y-74437330D01*
X168884974Y-74430435D01*
X168862585Y-74427658D01*
X168784696Y-74427658D01*
X168784696Y-73536660D01*
X168877386Y-73536660D01*
X168899695Y-73533847D01*
X168912630Y-73526841D01*
X168920549Y-73515711D01*
X168923255Y-73501489D01*
X168920576Y-73487606D01*
X168912630Y-73476356D01*
X168899672Y-73469186D01*
X168877386Y-73466318D01*
X168715892Y-73466318D01*
G37*
G36*
X167244793Y-74498000D02*
G01*
X167330083Y-74498000D01*
X167481758Y-74056384D01*
X167632553Y-74498000D01*
X167717843Y-74498000D01*
X167860432Y-73855543D01*
X167894064Y-73855543D01*
X167916373Y-73852730D01*
X167929308Y-73845725D01*
X167937227Y-73834595D01*
X167939933Y-73820372D01*
X167937255Y-73806489D01*
X167929308Y-73795240D01*
X167916350Y-73788070D01*
X167894064Y-73785201D01*
X167704727Y-73785201D01*
X167682365Y-73788019D01*
X167669483Y-73795020D01*
X167661507Y-73806156D01*
X167658785Y-73820372D01*
X167661479Y-73834249D01*
X167669483Y-73845505D01*
X167682388Y-73852669D01*
X167704727Y-73855543D01*
X167792435Y-73855543D01*
X167670289Y-74404210D01*
X167523523Y-73968090D01*
X167441531Y-73968090D01*
X167290735Y-74404210D01*
X167173499Y-73855543D01*
X167260400Y-73855543D01*
X167282833Y-73852742D01*
X167296084Y-73845725D01*
X167304347Y-73834558D01*
X167307149Y-73820372D01*
X167304470Y-73806489D01*
X167296524Y-73795240D01*
X167283462Y-73788096D01*
X167260400Y-73785201D01*
X167071869Y-73785201D01*
X167048796Y-73788043D01*
X167035819Y-73795020D01*
X167027843Y-73806156D01*
X167025121Y-73820372D01*
X167027816Y-73834249D01*
X167035819Y-73845505D01*
X167048820Y-73852645D01*
X167071869Y-73855543D01*
X167104622Y-73855543D01*
X167244793Y-74498000D01*
G37*
D13*
G36*
X168692358Y-91840167D02*
G01*
X167206751Y-90914487D01*
X166452773Y-90412079D01*
X166098133Y-90157578D01*
X166098133Y-89980746D01*
X166057100Y-89959009D01*
X165376762Y-89974640D01*
X164729030Y-89959009D01*
X164687997Y-89983189D01*
X164687997Y-90109462D01*
X164720603Y-90130956D01*
X165071944Y-90139995D01*
X165241573Y-90159776D01*
X165390676Y-90208665D01*
X165649337Y-90335631D01*
X166265928Y-90697110D01*
X167925924Y-91708764D01*
X165458461Y-93231863D01*
X164792777Y-93634131D01*
X164700556Y-93657690D01*
X164495289Y-93672477D01*
X164466713Y-93694947D01*
X164466713Y-93813161D01*
X164495289Y-93835631D01*
X164987316Y-93820000D01*
X165651168Y-93835631D01*
X166305129Y-93416755D01*
X168692358Y-91949588D01*
X168692358Y-92530886D01*
X168688328Y-93063091D01*
X168663782Y-93461695D01*
X168635347Y-93543262D01*
X168604431Y-93581863D01*
X168553791Y-93607292D01*
X168454588Y-93632421D01*
X167909438Y-93663684D01*
X167876831Y-93679804D01*
X167876831Y-93814138D01*
X167909438Y-93835631D01*
X168630809Y-93823907D01*
X169085833Y-93820000D01*
X170258199Y-93835631D01*
X170290806Y-93814138D01*
X170290806Y-93679804D01*
X170258199Y-93663684D01*
X169750052Y-93636329D01*
X169635128Y-93615293D01*
X169580059Y-93594075D01*
X169544735Y-93559092D01*
X169510083Y-93483433D01*
X169479309Y-93106322D01*
X169475279Y-92529909D01*
X169475279Y-91264731D01*
X169483339Y-90732037D01*
X169506053Y-90330502D01*
X169532831Y-90248752D01*
X169563572Y-90210090D01*
X169613955Y-90184965D01*
X169713049Y-90160997D01*
X170258199Y-90130956D01*
X170290806Y-90112149D01*
X170290806Y-89977815D01*
X170258199Y-89959009D01*
X169745655Y-89966824D01*
X169085833Y-89974640D01*
X167909438Y-89959009D01*
X167876831Y-89977815D01*
X167876831Y-90112149D01*
X167909438Y-90130956D01*
X168346144Y-90147320D01*
X168487817Y-90164793D01*
X168569626Y-90188353D01*
X168622938Y-90231980D01*
X168661950Y-90329281D01*
X168684298Y-90636782D01*
X168692358Y-91265952D01*
X168692358Y-91840167D01*
G37*
G36*
X162558163Y-91214853D02*
G01*
X162878890Y-91276210D01*
X163180964Y-91371758D01*
X163469103Y-91495540D01*
X163720908Y-91635055D01*
X163864776Y-91745157D01*
X163970390Y-91874576D01*
X164087892Y-92089295D01*
X164166672Y-92329265D01*
X164194504Y-92608799D01*
X164161611Y-92892507D01*
X164067972Y-93137035D01*
X163917899Y-93349099D01*
X163710421Y-93537592D01*
X163472314Y-93681178D01*
X163200558Y-93785073D01*
X162901675Y-93856469D01*
X162591862Y-93899343D01*
X162268161Y-93913789D01*
X161998521Y-93901184D01*
X161671720Y-93859567D01*
X161333967Y-93779416D01*
X160911514Y-93623628D01*
X160780355Y-93428478D01*
X160845935Y-93382316D01*
X161140518Y-93489846D01*
X161405373Y-93566475D01*
X161674954Y-93615872D01*
X161956751Y-93632421D01*
X162252934Y-93614973D01*
X162518774Y-93564242D01*
X162760190Y-93480757D01*
X162981472Y-93362533D01*
X163154342Y-93220122D01*
X163285817Y-93038925D01*
X163372922Y-92810147D01*
X163407554Y-92522581D01*
X162091939Y-92522581D01*
X161469120Y-92509148D01*
X161022024Y-92486918D01*
X160719173Y-92454682D01*
X160674110Y-92424640D01*
X160661653Y-92259776D01*
X160667390Y-92219965D01*
X161411601Y-92219965D01*
X161415631Y-92321325D01*
X162108426Y-92335003D01*
X162840055Y-92324256D01*
X163407554Y-92304961D01*
X163372128Y-92004178D01*
X163277427Y-91779849D01*
X163134979Y-91614487D01*
X162931427Y-91485970D01*
X162682800Y-91408663D01*
X162374773Y-91381479D01*
X162091590Y-91405627D01*
X161860780Y-91474381D01*
X161669888Y-91588353D01*
X161535268Y-91736481D01*
X161445411Y-91941142D01*
X161411601Y-92219965D01*
X160667390Y-92219965D01*
X160699909Y-91994306D01*
X160813328Y-91746133D01*
X160936891Y-91596821D01*
X161110302Y-91465087D01*
X161340160Y-91349239D01*
X161598848Y-91263985D01*
X161885565Y-91211884D01*
X162206612Y-91193900D01*
X162558163Y-91214853D01*
G37*
G36*
X160198203Y-95306461D02*
G01*
X160072951Y-95078632D01*
X159989009Y-94882944D01*
X159890457Y-94882944D01*
X159746643Y-94963860D01*
X159603340Y-95008984D01*
X159455949Y-95023628D01*
X159275806Y-95003415D01*
X159109349Y-94941650D01*
X158950000Y-94830188D01*
X158729922Y-94574708D01*
X158341468Y-93976315D01*
X158656908Y-93426524D01*
X159308670Y-92354054D01*
X159612020Y-91879002D01*
X159851988Y-91538771D01*
X159952372Y-91480153D01*
X160040197Y-91457786D01*
X160284298Y-91428374D01*
X160316905Y-91406147D01*
X160316905Y-91294284D01*
X160279902Y-91272058D01*
X159312700Y-91287690D01*
X158415108Y-91272058D01*
X158382135Y-91294284D01*
X158382135Y-91406147D01*
X158410711Y-91428374D01*
X158663136Y-91440586D01*
X158848540Y-91459463D01*
X158921423Y-91484305D01*
X158959941Y-91521134D01*
X158972348Y-91561730D01*
X158845586Y-91862637D01*
X158599755Y-92313021D01*
X158341468Y-92737759D01*
X157947993Y-93355694D01*
X157730739Y-93037201D01*
X157402843Y-92509148D01*
X157062491Y-91932002D01*
X156913014Y-91648192D01*
X156894330Y-91567592D01*
X156911767Y-91514759D01*
X156959909Y-91484061D01*
X157251168Y-91444982D01*
X157423360Y-91428374D01*
X157451936Y-91407613D01*
X157451936Y-91292819D01*
X157418963Y-91272058D01*
X156603436Y-91287690D01*
X155915038Y-91272058D01*
X155882065Y-91292819D01*
X155882065Y-91407613D01*
X155915038Y-91428374D01*
X156058078Y-91437433D01*
X156156838Y-91455973D01*
X156242157Y-91489111D01*
X156329030Y-91544389D01*
X156420432Y-91637905D01*
X156623953Y-91901960D01*
X157050401Y-92508171D01*
X157451936Y-93096552D01*
X158398621Y-94574710D01*
X158704169Y-94985282D01*
X158840303Y-95122520D01*
X158988952Y-95226329D01*
X159150767Y-95301577D01*
X159423753Y-95374618D01*
X159710572Y-95398785D01*
X159960259Y-95375927D01*
X160198203Y-95306461D01*
G37*
G36*
X155302477Y-93022791D02*
G01*
X155126256Y-93022791D01*
X155089253Y-93047215D01*
X155048220Y-93438248D01*
X154885610Y-93548981D01*
X154609682Y-93646099D01*
X154296689Y-93706649D01*
X153994923Y-93726210D01*
X153714315Y-93707350D01*
X153486668Y-93654504D01*
X153300662Y-93569895D01*
X153153677Y-93456659D01*
X153068745Y-93333808D01*
X153040177Y-93196936D01*
X153064404Y-93085627D01*
X153134699Y-92992749D01*
X153248194Y-92916260D01*
X153419364Y-92850111D01*
X153649150Y-92795898D01*
X154101901Y-92716999D01*
X154692114Y-92614417D01*
X154854030Y-92565750D01*
X155015614Y-92489609D01*
X155152623Y-92392048D01*
X155253384Y-92274187D01*
X155314416Y-92141917D01*
X155335450Y-91993063D01*
X155307440Y-91818449D01*
X155226415Y-91666395D01*
X155092315Y-91531915D01*
X154899110Y-91412009D01*
X154592940Y-91293394D01*
X154234349Y-91219807D01*
X153810642Y-91193900D01*
X153530991Y-91205922D01*
X153212002Y-91244459D01*
X152720341Y-91340935D01*
X152683339Y-91379036D01*
X152706446Y-91530789D01*
X152724371Y-91951053D01*
X152761374Y-91975478D01*
X152925139Y-91975478D01*
X152962142Y-91950565D01*
X153007205Y-91714382D01*
X153053957Y-91648460D01*
X153154849Y-91568080D01*
X153291152Y-91498286D01*
X153490806Y-91435457D01*
X153713029Y-91395111D01*
X153949860Y-91381479D01*
X154188166Y-91394791D01*
X154370080Y-91430816D01*
X154523978Y-91492967D01*
X154644853Y-91580293D01*
X154722121Y-91688661D01*
X154749267Y-91823070D01*
X154732948Y-91923248D01*
X154685886Y-92009672D01*
X154606376Y-92083175D01*
X154490980Y-92142540D01*
X154216573Y-92215080D01*
X153769609Y-92292016D01*
X153238489Y-92386696D01*
X152947854Y-92453705D01*
X152726117Y-92540841D01*
X152564637Y-92660823D01*
X152464778Y-92810267D01*
X152429448Y-92996657D01*
X152458307Y-93177249D01*
X152543537Y-93342841D01*
X152687267Y-93497448D01*
X152896929Y-93643656D01*
X153140573Y-93759335D01*
X153417507Y-93843263D01*
X153733861Y-93895501D01*
X154097505Y-93913789D01*
X154370469Y-93905281D01*
X154739009Y-93875931D01*
X155392602Y-93791912D01*
X155413119Y-93756741D01*
X155372086Y-93575268D01*
X155347540Y-93406008D01*
X155339480Y-93047215D01*
X155302477Y-93022791D01*
G37*
G36*
X151969661Y-91671395D02*
G01*
X151969661Y-91597390D01*
X151941085Y-91569057D01*
X151318265Y-91381479D01*
X151327205Y-90751485D01*
X151342812Y-90568639D01*
X150942628Y-90465673D01*
X150650017Y-90365429D01*
X150551465Y-90418185D01*
X150587764Y-90663199D01*
X150650017Y-91397110D01*
X150207449Y-91399797D01*
X149514654Y-91381479D01*
X149486078Y-91402728D01*
X149563747Y-91637690D01*
X149596720Y-91662847D01*
X150059804Y-91660160D01*
X150650017Y-91662847D01*
X150674563Y-92788318D01*
X150648185Y-93298541D01*
X150596549Y-93407351D01*
X150500540Y-93486608D01*
X150359743Y-93535476D01*
X150141503Y-93554263D01*
X149877080Y-93530782D01*
X149633356Y-93460474D01*
X149535170Y-93558904D01*
X150006681Y-93819511D01*
X150223047Y-93866961D01*
X150441189Y-93882526D01*
X150741837Y-93863366D01*
X150967137Y-93811583D01*
X151134923Y-93731724D01*
X151256431Y-93622558D01*
X151334563Y-93477335D01*
X151363328Y-93284863D01*
X151346842Y-92912149D01*
X151342812Y-92816161D01*
X151342812Y-91678478D01*
X151510973Y-91678478D01*
X151932658Y-91694110D01*
X151969661Y-91671395D01*
G37*
G36*
X147506330Y-91219551D02*
G01*
X147897119Y-91293305D01*
X148242637Y-91413230D01*
X148550740Y-91574259D01*
X148780133Y-91747273D01*
X148941294Y-91933712D01*
X149053200Y-92137910D01*
X149119799Y-92345773D01*
X149142062Y-92559218D01*
X149117635Y-92788563D01*
X149045772Y-93003013D01*
X148927006Y-93205240D01*
X148759967Y-93390652D01*
X148539893Y-93557786D01*
X148260956Y-93708136D01*
X147948237Y-93821946D01*
X147609122Y-93890416D01*
X147236235Y-93913789D01*
X146809001Y-93887999D01*
X146422055Y-93812674D01*
X146067100Y-93688034D01*
X145738171Y-93510544D01*
X145467590Y-93296097D01*
X145275522Y-93057001D01*
X145157943Y-92788292D01*
X145146663Y-92703810D01*
X145908164Y-92703810D01*
X145931816Y-92965109D01*
X145996565Y-93174159D01*
X146095255Y-93340344D01*
X146223970Y-93471465D01*
X146455820Y-93614298D01*
X146718417Y-93697731D01*
X147023011Y-93726210D01*
X147286320Y-93705908D01*
X147527427Y-93645757D01*
X147752808Y-93543517D01*
X147943646Y-93411135D01*
X148099263Y-93251264D01*
X148219923Y-93059672D01*
X148328899Y-92746213D01*
X148367568Y-92376524D01*
X148329275Y-92060213D01*
X148225913Y-91819593D01*
X148068614Y-91637934D01*
X147905137Y-91526161D01*
X147715802Y-91447127D01*
X147495481Y-91398514D01*
X147236235Y-91381479D01*
X146929246Y-91405306D01*
X146668875Y-91473807D01*
X146444431Y-91587285D01*
X146250348Y-91752240D01*
X146067393Y-92009151D01*
X145950271Y-92322173D01*
X145908164Y-92703810D01*
X145146663Y-92703810D01*
X145117184Y-92483014D01*
X145153061Y-92204729D01*
X145256166Y-91961304D01*
X145423706Y-91746328D01*
X145658304Y-91555136D01*
X145944691Y-91398847D01*
X146268463Y-91286978D01*
X146636909Y-91217965D01*
X147060013Y-91193900D01*
X147506330Y-91219551D01*
G37*
G36*
X143263014Y-91209532D02*
G01*
X143184979Y-91245191D01*
X143221981Y-91791074D01*
X142914602Y-91534375D01*
X142646057Y-91338492D01*
X142520481Y-91277764D01*
X142373482Y-91231758D01*
X142215531Y-91203338D01*
X142054012Y-91193900D01*
X141878295Y-91206124D01*
X141713660Y-91242505D01*
X141685083Y-91280118D01*
X141737597Y-91629639D01*
X141758722Y-91912951D01*
X141943370Y-91912951D01*
X142080319Y-91770140D01*
X142252749Y-91690181D01*
X142472034Y-91662847D01*
X142710074Y-91690253D01*
X142914602Y-91772023D01*
X143071438Y-91894455D01*
X143166660Y-92045331D01*
X143212507Y-92220705D01*
X143230041Y-92461032D01*
X143230041Y-92767801D01*
X143213921Y-93173977D01*
X143179117Y-93546936D01*
X143121598Y-93619965D01*
X143019016Y-93651716D01*
X142435031Y-93679316D01*
X142398028Y-93700565D01*
X142398028Y-93811695D01*
X142435031Y-93835631D01*
X143574424Y-93820000D01*
X144558112Y-93835631D01*
X144595115Y-93811695D01*
X144595115Y-93700565D01*
X144558112Y-93679316D01*
X144109682Y-93654647D01*
X144019556Y-93620209D01*
X143966067Y-93540586D01*
X143933461Y-93186189D01*
X143914776Y-92731409D01*
X143914776Y-92189923D01*
X143931263Y-91890481D01*
X143957641Y-91656985D01*
X143979038Y-91618549D01*
X144021388Y-91592505D01*
X144088321Y-91578316D01*
X144234612Y-91571744D01*
X144578628Y-91569057D01*
X144615631Y-91547808D01*
X144615631Y-91433991D01*
X144582658Y-91412742D01*
X144062343Y-91359175D01*
X143626053Y-91290573D01*
X143263014Y-91209532D01*
G37*
G36*
X140010799Y-91209532D02*
G01*
X139932763Y-91245191D01*
X139965736Y-91666022D01*
X139576290Y-91428618D01*
X139359403Y-91298925D01*
X139109176Y-91232247D01*
X138908766Y-91203622D01*
X138695184Y-91193900D01*
X138428115Y-91209674D01*
X138190908Y-91255341D01*
X137977843Y-91330188D01*
X137791533Y-91431759D01*
X137640541Y-91555819D01*
X137522819Y-91705345D01*
X136877285Y-91324815D01*
X136584193Y-91248367D01*
X136382449Y-91219146D01*
X136182658Y-91209532D01*
X135869891Y-91233154D01*
X135588415Y-91302588D01*
X135342871Y-91411258D01*
X135157937Y-91545854D01*
X135030728Y-91703417D01*
X134971458Y-91871430D01*
X134944713Y-92352833D01*
X134944713Y-92640062D01*
X134920167Y-93321011D01*
X134886900Y-93553053D01*
X134834438Y-93630223D01*
X134711804Y-93662236D01*
X134329954Y-93679316D01*
X134297348Y-93700565D01*
X134297348Y-93814382D01*
X134329954Y-93835631D01*
X135035205Y-93820000D01*
X135629448Y-93835631D01*
X135682571Y-93805589D01*
X135644314Y-93423954D01*
X135629448Y-92881374D01*
X135629448Y-92554089D01*
X135648415Y-92153002D01*
X135690997Y-91947390D01*
X135792644Y-91790750D01*
X135977861Y-91663824D01*
X136221063Y-91581779D01*
X136514584Y-91553426D01*
X136729808Y-91568296D01*
X136928576Y-91612288D01*
X137109587Y-91684316D01*
X137275157Y-91787166D01*
X137399137Y-91905286D01*
X137445150Y-92003077D01*
X137461270Y-92370418D01*
X137461270Y-92712114D01*
X137444783Y-93162986D01*
X137409979Y-93548157D01*
X137352826Y-93626071D01*
X137262700Y-93656113D01*
X136821964Y-93679316D01*
X136784961Y-93700565D01*
X136784961Y-93811695D01*
X136817934Y-93835631D01*
X137805652Y-93820000D01*
X138789340Y-93835631D01*
X138826343Y-93811695D01*
X138826343Y-93700565D01*
X138789340Y-93679316D01*
X138340910Y-93654647D01*
X138250785Y-93620209D01*
X138197295Y-93540341D01*
X138164689Y-93185212D01*
X138146004Y-92729699D01*
X138146004Y-92415847D01*
X138164444Y-92122802D01*
X138209752Y-91937131D01*
X138308832Y-91783006D01*
X138482327Y-91653565D01*
X138629987Y-91590331D01*
X138802578Y-91551439D01*
X139006594Y-91537794D01*
X139244148Y-91554329D01*
X139455390Y-91602519D01*
X139643106Y-91676386D01*
X139787316Y-91762254D01*
X139895921Y-91858755D01*
X139947051Y-91939818D01*
X139967790Y-92046049D01*
X139977826Y-92297390D01*
X139977826Y-92704787D01*
X139961706Y-93159078D01*
X139926901Y-93547180D01*
X139869382Y-93625582D01*
X139779256Y-93655868D01*
X139338886Y-93679316D01*
X139301884Y-93700565D01*
X139301884Y-93811695D01*
X139334490Y-93835631D01*
X140322208Y-93820000D01*
X141305896Y-93835631D01*
X141342899Y-93811695D01*
X141342899Y-93700565D01*
X141305896Y-93679316D01*
X140857466Y-93654647D01*
X140767341Y-93620209D01*
X140713852Y-93540586D01*
X140681245Y-93186189D01*
X140662561Y-92731409D01*
X140662561Y-92189923D01*
X140679047Y-91890481D01*
X140705425Y-91656985D01*
X140726823Y-91618549D01*
X140769173Y-91592505D01*
X140836105Y-91578316D01*
X140982397Y-91571744D01*
X141326413Y-91569057D01*
X141363415Y-91547808D01*
X141363415Y-91433991D01*
X141330443Y-91412742D01*
X140810127Y-91359175D01*
X140373837Y-91290573D01*
X140010799Y-91209532D01*
G37*
G36*
X131878244Y-93811939D02*
G01*
X131878244Y-93684933D01*
X131845638Y-93663684D01*
X131593815Y-93651636D01*
X131476709Y-93629734D01*
X131381670Y-93583073D01*
X131234909Y-93474152D01*
X130656786Y-92951228D01*
X129537909Y-91916371D01*
X130263311Y-91094738D01*
X130621981Y-90735701D01*
X130890371Y-90493438D01*
X131056489Y-90370558D01*
X131209034Y-90285547D01*
X131292428Y-90256008D01*
X131722540Y-90240376D01*
X131759542Y-90214487D01*
X131759542Y-90094319D01*
X131722540Y-90068429D01*
X130562630Y-89943377D01*
X130415159Y-90022631D01*
X130236933Y-90156845D01*
X130048836Y-90337216D01*
X129730617Y-90687829D01*
X129041852Y-91485038D01*
X127476378Y-89959009D01*
X127054326Y-89974640D01*
X126672941Y-89959009D01*
X126640334Y-89983921D01*
X126640334Y-90108729D01*
X126672941Y-90130956D01*
X126909364Y-90145107D01*
X127015491Y-90162463D01*
X127101143Y-90197508D01*
X127232745Y-90278478D01*
X127775697Y-90739853D01*
X128537735Y-91427641D01*
X128845115Y-91700704D01*
X127455861Y-93196692D01*
X127138224Y-93514940D01*
X127017655Y-93606054D01*
X126943684Y-93640481D01*
X126846398Y-93654730D01*
X126607362Y-93663684D01*
X126574755Y-93684933D01*
X126574755Y-93814382D01*
X126607362Y-93835631D01*
X127156542Y-93820000D01*
X127787787Y-93835631D01*
X128242812Y-93353984D01*
X129320655Y-92132037D01*
X129619975Y-92407787D01*
X130225146Y-92996816D01*
X131009228Y-93835631D01*
X131427250Y-93820000D01*
X131841242Y-93835631D01*
X131878244Y-93811939D01*
G37*
G36*
X125980879Y-93743551D02*
G01*
X126079938Y-93404222D01*
X126255652Y-92961974D01*
X126235136Y-92920697D01*
X126083461Y-92882107D01*
X126026308Y-92901402D01*
X125871280Y-93142031D01*
X125718928Y-93321256D01*
X125522437Y-93465689D01*
X125247418Y-93575268D01*
X124930305Y-93641240D01*
X124583565Y-93663684D01*
X124287915Y-93648071D01*
X124053666Y-93605198D01*
X123868422Y-93538876D01*
X123636301Y-93393441D01*
X123460659Y-93199867D01*
X123354155Y-92976129D01*
X123317044Y-92717243D01*
X123351890Y-92483877D01*
X123448630Y-92298398D01*
X123602076Y-92150355D01*
X123810238Y-92038157D01*
X124068230Y-91968901D01*
X124390858Y-91944214D01*
X124698237Y-91966929D01*
X125116259Y-92069267D01*
X125161322Y-92040935D01*
X125071196Y-91741004D01*
X124628628Y-91756636D01*
X124324800Y-91730442D01*
X124075766Y-91655638D01*
X123868422Y-91531200D01*
X123712721Y-91372263D01*
X123619405Y-91196405D01*
X123587421Y-90998506D01*
X123620480Y-90827687D01*
X123717023Y-90679316D01*
X123880512Y-90547634D01*
X124089590Y-90446962D01*
X124327773Y-90386380D01*
X124603715Y-90365429D01*
X124879507Y-90384757D01*
X125138607Y-90442365D01*
X125373257Y-90529606D01*
X125554797Y-90629211D01*
X125776081Y-90997285D01*
X125817114Y-91021953D01*
X126001395Y-91021953D01*
X126034368Y-90997285D01*
X125788538Y-90360055D01*
X125513693Y-90193394D01*
X125196645Y-90074246D01*
X124829041Y-90000508D01*
X124398918Y-89974640D01*
X123966433Y-90002905D01*
X123611964Y-90082335D01*
X123319242Y-90209602D01*
X123136593Y-90336504D01*
X123009670Y-90475132D01*
X122933286Y-90628154D01*
X122907083Y-90799692D01*
X122933924Y-90975683D01*
X123013752Y-91140651D01*
X123148883Y-91297948D01*
X123427958Y-91511810D01*
X123821161Y-91725373D01*
X123361053Y-91788762D01*
X123039873Y-91884332D01*
X122823185Y-92005764D01*
X122663555Y-92163880D01*
X122567331Y-92342114D01*
X122534124Y-92546273D01*
X122576376Y-92793325D01*
X122703426Y-93028421D01*
X122922156Y-93256947D01*
X123247435Y-93482456D01*
X123621817Y-93665968D01*
X124017192Y-93794585D01*
X124439119Y-93871890D01*
X124894975Y-93898157D01*
X125168314Y-93890221D01*
X125415212Y-93867383D01*
X125664112Y-93824071D01*
X125980879Y-93743551D01*
G37*
M02*
