M48
; DRILL file KiCad 10.0.3 date 2026-06-27T14:38:24
; FORMAT={-:-/ absolute / metric / decimal}
; #@! TF.CreationDate,2026-06-27T14:38:24+05:30
; #@! TF.GenerationSoftware,Kicad,Pcbnew,10.0.3
; #@! TF.FileFunction,Plated,1,2,PTH
FMAT,2
METRIC
; #@! TA.AperFunction,Plated,PTH,ComponentDrill
T1C0.700
; #@! TA.AperFunction,Plated,PTH,ComponentDrill
T2C0.889
; #@! TA.AperFunction,Plated,PTH,ComponentDrill
T3C1.000
; #@! TA.AperFunction,Plated,PTH,ComponentDrill
T4C1.210
; #@! TA.AperFunction,Plated,PTH,ComponentDrill
T5C1.500
%
G90
G05
T1
X144.297Y-102.406
X144.297Y-112.406
X144.337Y-97.406
X144.337Y-107.406
X149.377Y-102.406
X149.377Y-112.406
X149.417Y-97.406
X149.417Y-107.406
T2
X154.988Y-97.786
X154.988Y-113.026
X157.528Y-97.786
X157.528Y-113.026
X160.068Y-97.786
X160.068Y-113.026
X162.608Y-97.786
X162.608Y-113.026
X165.148Y-97.786
X165.148Y-113.026
X167.688Y-97.786
X167.688Y-113.026
X170.228Y-97.786
X170.228Y-113.026
T3
X126.077Y-99.906
X133.677Y-99.906
T4
X121.377Y-110.636
X121.377Y-113.176
X129.5Y-110.906
X129.5Y-113.446
X137.877Y-110.906
X137.877Y-113.446
T5
X124.257Y-87.486
X130.607Y-84.946
X143.257Y-87.486
X149.607Y-84.946
X162.377Y-87.486
X168.727Y-84.946
M30
