%TF.GenerationSoftware,KiCad,Pcbnew,10.0.3*%
%TF.CreationDate,2026-06-27T14:36:09+05:30*%
%TF.ProjectId,pathfinder,70617468-6669-46e6-9465-722e6b696361,rev?*%
%TF.SameCoordinates,Original*%
%TF.FileFunction,Legend,Top*%
%TF.FilePolarity,Positive*%
%FSLAX46Y46*%
G04 Gerber Fmt 4.6, Leading zero omitted, Abs format (unit mm)*
G04 Created by KiCad (PCBNEW 10.0.3) date 2026-06-27 14:36:09*
%MOMM*%
%LPD*%
G01*
G04 APERTURE LIST*
%ADD10C,1.000000*%
%ADD11C,0.150000*%
%ADD12C,0.127000*%
%ADD13C,0.200000*%
%ADD14C,0.120000*%
%ADD15C,0.100000*%
%ADD16C,0.504000*%
G04 APERTURE END LIST*
D10*
X119000000Y-74500000D02*
X134500000Y-74500000D01*
X134500000Y-90000000D01*
X119000000Y-90000000D01*
X119000000Y-74500000D01*
X124804349Y-111912000D02*
G75*
G02*
X117949149Y-111912000I-3427600J0D01*
G01*
X117949149Y-111912000D02*
G75*
G02*
X124804349Y-111912000I3427600J0D01*
G01*
X132939349Y-112182000D02*
G75*
G02*
X126060651Y-112182000I-3439349J0D01*
G01*
X126060651Y-112182000D02*
G75*
G02*
X132939349Y-112182000I3439349J0D01*
G01*
X141686712Y-112182000D02*
G75*
G02*
X134066786Y-112182000I-3809963J0D01*
G01*
X134066786Y-112182000D02*
G75*
G02*
X141686712Y-112182000I3809963J0D01*
G01*
X138000000Y-74500000D02*
X153500000Y-74500000D01*
X153500000Y-90000000D01*
X138000000Y-90000000D01*
X138000000Y-74500000D01*
X157161489Y-74499999D02*
X172500000Y-74499999D01*
X172500000Y-90000000D01*
X157161489Y-90000000D01*
X157161489Y-74499999D01*
D11*
X133305797Y-102519742D02*
X134067702Y-102519742D01*
X133686749Y-102900695D02*
X133686749Y-102138790D01*
%TO.C,D1*%
D12*
X139442749Y-109675876D02*
X136310749Y-109675876D01*
X139442749Y-109675876D02*
G75*
G02*
X136310749Y-109675876I-1566000J-2506124D01*
G01*
D13*
X137976749Y-108975876D02*
G75*
G02*
X137776749Y-108975876I-100000J0D01*
G01*
X137776749Y-108975876D02*
G75*
G02*
X137976749Y-108975876I100000J0D01*
G01*
%TO.C,SW2*%
D14*
X138811749Y-75420876D02*
X152781749Y-75420876D01*
X138811749Y-89390876D02*
X138811749Y-75420876D01*
X152781749Y-75420876D02*
X152781749Y-89390876D01*
X152781749Y-89390876D02*
X138811749Y-89390876D01*
%TO.C,R1*%
X144956749Y-96485876D02*
X148796749Y-96485876D01*
X144956749Y-98325876D02*
X148796749Y-98325876D01*
%TO.C,BZ1*%
X135976749Y-99905876D02*
G75*
G02*
X123776749Y-99905876I-6100000J0D01*
G01*
X123776749Y-99905876D02*
G75*
G02*
X135976749Y-99905876I6100000J0D01*
G01*
%TO.C,D2*%
D12*
X131066000Y-109675876D02*
X127934000Y-109675876D01*
X131066000Y-109675876D02*
G75*
G02*
X127934000Y-109675876I-1566000J-2506124D01*
G01*
D13*
X129600000Y-108975876D02*
G75*
G02*
X129400000Y-108975876I-100000J0D01*
G01*
X129400000Y-108975876D02*
G75*
G02*
X129600000Y-108975876I100000J0D01*
G01*
%TO.C,R2*%
D14*
X144916749Y-101485876D02*
X148756749Y-101485876D01*
X144916749Y-103325876D02*
X148756749Y-103325876D01*
%TO.C,R3*%
X144956749Y-106485876D02*
X148796749Y-106485876D01*
X144956749Y-108325876D02*
X148796749Y-108325876D01*
%TO.C,U1*%
D12*
X152194249Y-98420876D02*
X152194249Y-112390876D01*
X154099249Y-96515876D02*
X171244249Y-96515876D01*
X154099249Y-114295876D02*
X171244249Y-114295876D01*
X173149249Y-100910876D02*
X174059521Y-100914604D01*
D15*
X173149249Y-112390876D02*
X173149249Y-98420876D01*
D12*
X173149249Y-112390876D02*
X173149249Y-98420876D01*
X174059249Y-109909876D02*
X173149249Y-109909876D01*
X174559249Y-101414604D02*
X174559249Y-109409876D01*
X152194249Y-98420876D02*
G75*
G02*
X154099249Y-96515876I1905001J-1D01*
G01*
X154099249Y-114295876D02*
G75*
G02*
X152194249Y-112390876I1J1905001D01*
G01*
X171244249Y-96515876D02*
G75*
G02*
X173149249Y-98420876I0J-1905000D01*
G01*
X173149249Y-112390876D02*
G75*
G02*
X171244249Y-114295876I-1905000J0D01*
G01*
X174059521Y-100914604D02*
G75*
G02*
X174559221Y-101414604I-272J-499972D01*
G01*
X174559249Y-109409876D02*
G75*
G02*
X174059249Y-109909876I-500000J0D01*
G01*
D16*
X172280249Y-97598876D02*
G75*
G02*
X171776249Y-97598876I-252000J0D01*
G01*
X171776249Y-97598876D02*
G75*
G02*
X172280249Y-97598876I252000J0D01*
G01*
X173160249Y-96455876D02*
G75*
G02*
X172656249Y-96455876I-252000J0D01*
G01*
X172656249Y-96455876D02*
G75*
G02*
X173160249Y-96455876I252000J0D01*
G01*
%TO.C,D3*%
D12*
X122942749Y-109405876D02*
X119810749Y-109405876D01*
X122942749Y-109405876D02*
G75*
G02*
X119810749Y-109405876I-1566000J-2506124D01*
G01*
D13*
X121476749Y-108705876D02*
G75*
G02*
X121276749Y-108705876I-100000J0D01*
G01*
X121276749Y-108705876D02*
G75*
G02*
X121476749Y-108705876I100000J0D01*
G01*
%TO.C,SW1*%
D14*
X157931749Y-75420876D02*
X171901749Y-75420876D01*
X157931749Y-89390876D02*
X157931749Y-75420876D01*
X171901749Y-75420876D02*
X171901749Y-89390876D01*
X171901749Y-89390876D02*
X157931749Y-89390876D01*
%TO.C,SW3*%
X119811749Y-75420876D02*
X133781749Y-75420876D01*
X119811749Y-89390876D02*
X119811749Y-75420876D01*
X133781749Y-75420876D02*
X133781749Y-89390876D01*
X133781749Y-89390876D02*
X119811749Y-89390876D01*
%TO.C,R4*%
X148756749Y-111485876D02*
X144916749Y-111485876D01*
X148756749Y-113325876D02*
X144916749Y-113325876D01*
%TD*%
M02*
