%TF.GenerationSoftware,KiCad,Pcbnew,10.0.3*%
%TF.CreationDate,2026-06-27T14:36:09+05:30*%
%TF.ProjectId,pathfinder,70617468-6669-46e6-9465-722e6b696361,rev?*%
%TF.SameCoordinates,Original*%
%TF.FileFunction,Soldermask,Bot*%
%TF.FilePolarity,Negative*%
%FSLAX46Y46*%
G04 Gerber Fmt 4.6, Leading zero omitted, Abs format (unit mm)*
G04 Created by KiCad (PCBNEW 10.0.3) date 2026-06-27 14:36:09*
%MOMM*%
%LPD*%
G01*
G04 APERTURE LIST*
G04 Aperture macros list*
%AMRoundRect*
0 Rectangle with rounded corners*
0 $1 Rounding radius*
0 $2 $3 $4 $5 $6 $7 $8 $9 X,Y pos of 4 corners*
0 Add a 4 corners polygon primitive as box body*
4,1,4,$2,$3,$4,$5,$6,$7,$8,$9,$2,$3,0*
0 Add four circle primitives for the rounded corners*
1,1,$1+$1,$2,$3*
1,1,$1+$1,$4,$5*
1,1,$1+$1,$6,$7*
1,1,$1+$1,$8,$9*
0 Add four rect primitives between the rounded corners*
20,1,$1+$1,$2,$3,$4,$5,0*
20,1,$1+$1,$4,$5,$6,$7,0*
20,1,$1+$1,$6,$7,$8,$9,0*
20,1,$1+$1,$8,$9,$2,$3,0*%
G04 Aperture macros list end*
%ADD10C,2.019000*%
%ADD11RoundRect,0.102000X-0.907500X0.907500X-0.907500X-0.907500X0.907500X-0.907500X0.907500X0.907500X0*%
%ADD12C,1.700000*%
%ADD13C,4.000000*%
%ADD14C,2.200000*%
%ADD15C,1.400000*%
%ADD16R,2.000000X2.000000*%
%ADD17C,2.000000*%
%ADD18C,1.524000*%
G04 APERTURE END LIST*
D10*
%TO.C,D1*%
X137876749Y-113445876D03*
D11*
X137876749Y-110905876D03*
%TD*%
D12*
%TO.C,SW2*%
X150876749Y-82405876D03*
D13*
X145796749Y-82405876D03*
D12*
X140716749Y-82405876D03*
D14*
X143256749Y-87485876D03*
X149606749Y-84945876D03*
%TD*%
D15*
%TO.C,R1*%
X144336749Y-97405876D03*
X149416749Y-97405876D03*
%TD*%
D16*
%TO.C,BZ1*%
X133676749Y-99905876D03*
D17*
X126076749Y-99905876D03*
%TD*%
D10*
%TO.C,D2*%
X129500000Y-113445876D03*
D11*
X129500000Y-110905876D03*
%TD*%
D15*
%TO.C,R2*%
X144296749Y-102405876D03*
X149376749Y-102405876D03*
%TD*%
%TO.C,R3*%
X144336749Y-107405876D03*
X149416749Y-107405876D03*
%TD*%
D18*
%TO.C,U1*%
X170228249Y-97785876D03*
X167688249Y-97785876D03*
X165148249Y-97785876D03*
X162608249Y-97785876D03*
X160068249Y-97785876D03*
X157528249Y-97785876D03*
X154988249Y-97785876D03*
X154988249Y-113025876D03*
X157528249Y-113025876D03*
X160068249Y-113025876D03*
X162608249Y-113025876D03*
X165148249Y-113025876D03*
X167688249Y-113025876D03*
X170228249Y-113025876D03*
%TD*%
D10*
%TO.C,D3*%
X121376749Y-113175876D03*
D11*
X121376749Y-110635876D03*
%TD*%
D12*
%TO.C,SW1*%
X169996749Y-82405876D03*
D13*
X164916749Y-82405876D03*
D12*
X159836749Y-82405876D03*
D14*
X162376749Y-87485876D03*
X168726749Y-84945876D03*
%TD*%
D12*
%TO.C,SW3*%
X131876749Y-82405876D03*
D13*
X126796749Y-82405876D03*
D12*
X121716749Y-82405876D03*
D14*
X124256749Y-87485876D03*
X130606749Y-84945876D03*
%TD*%
D15*
%TO.C,R4*%
X149376749Y-112405876D03*
X144296749Y-112405876D03*
%TD*%
M02*
